<svg width="40" height="40" viewBox="0 0 40 40" fill="none" xmlns="http://www.w3.org/2000/svg">
<path d="M2.77777 9.44446H37.2222V30.5556H2.77777V9.44446Z" fill="#F1B31C"/>
<path d="M12.7778 18.3333V22.2222C12.7769 22.5166 12.6595 22.7988 12.4514 23.0069C12.2432 23.2151 11.9611 23.3325 11.6667 23.3333H9.44444C9.15002 23.3325 8.86792 23.2151 8.65973 23.0069C8.45155 22.7988 8.33421 22.5166 8.33333 22.2222V18.3333M2.77777 9.44446H37.2222V14.4445H2.77777V9.44446ZM2.77777 25.5556H37.2222V30.5556H2.77777V25.5556Z" fill="#D22F27"/>
<path d="M10.5555 18.3333H12.7778V20.5556H10.5555V18.3333Z" fill="#F1B31C"/>
<path d="M10.5556 21.3889C11.0158 21.3889 11.3889 21.0158 11.3889 20.5556C11.3889 20.0953 11.0158 19.7222 10.5556 19.7222C10.0953 19.7222 9.72223 20.0953 9.72223 20.5556C9.72223 21.0158 10.0953 21.3889 10.5556 21.3889Z" fill="#6A462F"/>
<path d="M15 18.3333V23.3333M6.1111 18.3333V23.3333M8.33332 16.6667C9.0178 16.3034 9.78062 16.1127 10.5555 16.1111C11.3305 16.1127 12.0933 16.3034 12.7778 16.6667M5.55554 23.3333H6.66665M14.4444 23.3333H15.5555M8.33332 18.3333H12.7778V22.2222C12.7769 22.5166 12.6595 22.7987 12.4514 23.0069C12.2432 23.2151 11.9611 23.3325 11.6667 23.3333H9.44443C9.15002 23.3325 8.86791 23.2151 8.65973 23.0069C8.45154 22.7987 8.3342 22.5166 8.33332 22.2222V18.3333Z" stroke="#6A462F" stroke-width="2" stroke-linecap="round" stroke-linejoin="round"/>
<path d="M2.77777 9.44446H37.2222V30.5556H2.77777V9.44446Z" stroke="black" stroke-width="2" stroke-linecap="round" stroke-linejoin="round"/>
</svg>
