<svg width="40" height="40" viewBox="0 0 40 40" fill="none" xmlns="http://www.w3.org/2000/svg">
<path d="M2.77777 9.44446H37.2222V30.5556H2.77777V9.44446Z" fill="#5C9E31"/>
<path d="M32.7906 20.0128L19.9256 28.1405L7.20947 20.1617L20.0745 12.0339L32.7906 20.0128Z" fill="#FCEA2B"/>
<path d="M20 25C22.7614 25 25 22.7614 25 20C25 17.2386 22.7614 15 20 15C17.2386 15 15 17.2386 15 20C15 22.7614 17.2386 25 20 25Z" fill="#1E50A0"/>
<path d="M24.5328 22.1011C24.7161 21.7013 24.8461 21.2792 24.9195 20.8455C24.5063 19.9819 23.9039 19.2224 23.157 18.6234C22.4101 18.0245 21.5379 17.6015 20.6051 17.3858C19.6723 17.1702 18.7029 17.1675 17.7689 17.3779C16.8349 17.5883 15.9603 18.0064 15.21 18.6011C15.1025 18.9652 15.0369 19.3404 15.0145 19.7194C15.7517 19.1146 16.6203 18.6908 17.5508 18.4819C18.4812 18.2729 19.4476 18.2846 20.3727 18.5161C21.2978 18.7476 22.1558 19.1924 22.8782 19.8149C23.6006 20.4374 24.1672 21.2204 24.5328 22.1011Z" fill="white"/>
<path d="M2.77777 9.44446H37.2222V30.5556H2.77777V9.44446Z" stroke="black" stroke-width="2" stroke-linecap="round" stroke-linejoin="round"/>
</svg>
