<svg width="40" height="40" viewBox="0 0 40 40" fill="none" xmlns="http://www.w3.org/2000/svg">
<path d="M2.77777 9.44446H37.2222V30.5556H2.77777V9.44446Z" fill="white"/>
<path d="M2.77777 9.44446H37.2222V12.2222H2.77777V9.44446ZM2.77777 14.4445H37.2222V16.6667H2.77777V14.4445ZM2.77777 18.8889H37.2222V21.1111H2.77777V18.8889Z" fill="#D22F27"/>
<path d="M2.77777 9.44446H20.5555V21.1111H2.77777V9.44446Z" fill="#1E50A0"/>
<path d="M2.77777 23.3333H37.2222V25.5556H2.77777V23.3333Z" fill="#D22F27"/>
<path d="M5.27776 13.1944C5.81471 13.1944 6.24999 12.7592 6.24999 12.2222C6.24999 11.6853 5.81471 11.25 5.27776 11.25C4.74082 11.25 4.30554 11.6853 4.30554 12.2222C4.30554 12.7592 4.74082 13.1944 5.27776 13.1944Z" fill="white"/>
<path d="M9.72222 13.1944C10.2592 13.1944 10.6944 12.7592 10.6944 12.2222C10.6944 11.6853 10.2592 11.25 9.72222 11.25C9.18528 11.25 8.75 11.6853 8.75 12.2222C8.75 12.7592 9.18528 13.1944 9.72222 13.1944Z" fill="white"/>
<path d="M14.1667 13.1944C14.7036 13.1944 15.1389 12.7592 15.1389 12.2222C15.1389 11.6853 14.7036 11.25 14.1667 11.25C13.6297 11.25 13.1945 11.6853 13.1945 12.2222C13.1945 12.7592 13.6297 13.1944 14.1667 13.1944Z" fill="white"/>
<path d="M18.6111 13.1944C19.1481 13.1944 19.5834 12.7592 19.5834 12.2222C19.5834 11.6853 19.1481 11.25 18.6111 11.25C18.0742 11.25 17.6389 11.6853 17.6389 12.2222C17.6389 12.7592 18.0742 13.1944 18.6111 13.1944Z" fill="white"/>
<path d="M16.3889 15.4167C16.9259 15.4167 17.3611 14.9814 17.3611 14.4445C17.3611 13.9075 16.9259 13.4722 16.3889 13.4722C15.852 13.4722 15.4167 13.9075 15.4167 14.4445C15.4167 14.9814 15.852 15.4167 16.3889 15.4167Z" fill="white"/>
<path d="M11.9445 15.4167C12.4814 15.4167 12.9167 14.9814 12.9167 14.4445C12.9167 13.9075 12.4814 13.4722 11.9445 13.4722C11.4075 13.4722 10.9722 13.9075 10.9722 14.4445C10.9722 14.9814 11.4075 15.4167 11.9445 15.4167Z" fill="white"/>
<path d="M7.49999 15.4167C8.03694 15.4167 8.47222 14.9814 8.47222 14.4445C8.47222 13.9075 8.03694 13.4722 7.49999 13.4722C6.96305 13.4722 6.52777 13.9075 6.52777 14.4445C6.52777 14.9814 6.96305 15.4167 7.49999 15.4167Z" fill="white"/>
<path d="M5.27776 17.6389C5.81471 17.6389 6.24999 17.2036 6.24999 16.6667C6.24999 16.1297 5.81471 15.6945 5.27776 15.6945C4.74082 15.6945 4.30554 16.1297 4.30554 16.6667C4.30554 17.2036 4.74082 17.6389 5.27776 17.6389Z" fill="white"/>
<path d="M9.72222 17.6389C10.2592 17.6389 10.6944 17.2036 10.6944 16.6667C10.6944 16.1297 10.2592 15.6945 9.72222 15.6945C9.18528 15.6945 8.75 16.1297 8.75 16.6667C8.75 17.2036 9.18528 17.6389 9.72222 17.6389Z" fill="white"/>
<path d="M14.1667 17.6389C14.7036 17.6389 15.1389 17.2036 15.1389 16.6667C15.1389 16.1297 14.7036 15.6945 14.1667 15.6945C13.6297 15.6945 13.1945 16.1297 13.1945 16.6667C13.1945 17.2036 13.6297 17.6389 14.1667 17.6389Z" fill="white"/>
<path d="M18.6111 17.6389C19.1481 17.6389 19.5834 17.2036 19.5834 16.6667C19.5834 16.1297 19.1481 15.6945 18.6111 15.6945C18.0742 15.6945 17.6389 16.1297 17.6389 16.6667C17.6389 17.2036 18.0742 17.6389 18.6111 17.6389Z" fill="white"/>
<path d="M16.3889 19.8611C16.9259 19.8611 17.3611 19.4258 17.3611 18.8889C17.3611 18.3519 16.9259 17.9167 16.3889 17.9167C15.852 17.9167 15.4167 18.3519 15.4167 18.8889C15.4167 19.4258 15.852 19.8611 16.3889 19.8611Z" fill="white"/>
<path d="M11.9445 19.8611C12.4814 19.8611 12.9167 19.4258 12.9167 18.8889C12.9167 18.3519 12.4814 17.9167 11.9445 17.9167C11.4075 17.9167 10.9722 18.3519 10.9722 18.8889C10.9722 19.4258 11.4075 19.8611 11.9445 19.8611Z" fill="white"/>
<path d="M7.49999 19.8611C8.03694 19.8611 8.47222 19.4258 8.47222 18.8889C8.47222 18.3519 8.03694 17.9167 7.49999 17.9167C6.96305 17.9167 6.52777 18.3519 6.52777 18.8889C6.52777 19.4258 6.96305 19.8611 7.49999 19.8611Z" fill="white"/>
<path d="M2.77777 27.7778H37.2222V30.5555H2.77777V27.7778Z" fill="#D22F27"/>
<path d="M2.77777 9.44446H37.2222V30.5556H2.77777V9.44446Z" stroke="black" stroke-width="2" stroke-linecap="round" stroke-linejoin="round"/>
</svg>
