<svg width="400" height="400" viewBox="0 0 400 400" fill="none" xmlns="http://www.w3.org/2000/svg">
<style type="text/css">
    #cloud_1 {
        animation: moveClouds 10s linear infinite;
    }

    #cloud_2 {
        animation: moveClouds 30s linear infinite;
    }

    #cloud_3 {
        animation: moveClouds 20s linear infinite;
    }

    #plant_1 {
        animation: movePlants1 3s ease-in-out alternate infinite;
    }

    #plant_2 {
        animation: movePlants1 3.5s ease-in-out alternate infinite .1s;
    }

    #plant_3 {
        animation: movePlants2 2s ease-in-out alternate infinite;
    }

    #plant_4 {
        animation: movePlants2 2.5s ease-in-out alternate infinite .3s;
    }

    #plant_5 {
        animation: movePlants3 1s ease-in-out alternate infinite .2s;
    }

    #plant_6 {
        animation: movePlants3 1.5s ease-in-out alternate infinite .4s;
    }

    @keyframes moveClouds {
        from {
            transform: translateX(-300px);
        }
        to {
            transform: translateX(320px);
        }
    }

    @keyframes movePlants1 {
        to {
            transform: rotate(15deg) translateX(80px) translateY(-80px);
        }
    }

    @keyframes movePlants2 {
        to {
            transform: rotate(15deg) translateX(80px) translateY(-89px);
        }
    }

    @keyframes movePlants3 {
        from {
            transform: rotate(0deg);
        }
        to {
            transform: rotate(5deg) translateX(25px) translateY(-10px);
        }
    }
</style>
<rect width="400" height="400" rx="160" fill="url(#paint0_radial_6_332)"/>
<path id="cloud_1" d="M122.871 214.247C105.462 214.247 92.1849 214.004 91.615 213.277C91.5799 213.227 91.5551 213.171 91.5423 213.111C91.5295 213.052 91.5288 212.99 91.5404 212.93C91.9203 211.357 93.7522 206.189 101.174 205.648C103.137 205.499 105.11 205.632 107.036 206.043C109.031 206.424 109.628 206.542 110.714 204.332L110.863 204.027C112.898 199.87 115.938 193.599 124.785 194.112C127.539 194.318 130.236 195.022 132.75 196.191C135.694 197.431 137.038 197.992 138.693 194.327C141.956 187.1 147.296 180.178 162.154 183.608C176.503 186.913 180.126 202.704 180.54 204.727C182.162 205.163 184.116 204.117 186.361 202.918C189.882 201.041 193.865 198.92 198.105 201.706C205.053 206.265 205.134 212.75 205.134 213.027C205.132 213.117 205.097 213.204 205.035 213.268C204.974 213.332 204.89 213.37 204.802 213.374C193.085 213.568 152.16 214.247 122.871 214.247ZM92.2528 212.861C96.8188 214.247 174.115 213.2 204.435 212.667C204.313 211.281 203.479 206.036 197.739 202.274C193.831 199.703 190.032 201.734 186.68 203.521C184.312 204.782 182.073 205.974 180.14 205.316C180.081 205.296 180.028 205.261 179.988 205.213C179.947 205.166 179.92 205.108 179.909 205.045C179.909 204.872 176.822 187.682 162.005 184.259C147.662 180.954 142.621 187.273 139.31 194.597C137.377 198.865 135.436 198.061 132.492 196.814C130.049 195.673 127.424 194.99 124.744 194.798C116.351 194.327 113.414 200.341 111.473 204.325L111.317 204.637C110.008 207.311 108.97 207.11 106.907 206.715C105.039 206.314 103.126 206.184 101.222 206.327C94.7088 206.812 92.8023 210.893 92.2528 212.868V212.861Z" fill="#263238"/>
<path id="cloud_2" d="M261.677 250.359C250.285 250.359 241.75 250.193 241.364 249.666C241.328 249.619 241.304 249.566 241.291 249.508C241.278 249.451 241.277 249.391 241.289 249.334C241.533 248.322 242.714 244.996 247.47 244.65C248.717 244.556 249.97 244.64 251.194 244.899C252.443 245.142 252.735 245.197 253.379 243.895L253.474 243.701C254.682 241.22 256.717 237.049 262.355 237.382C264.106 237.508 265.82 237.954 267.416 238.698C269.302 239.488 270.008 239.779 270.999 237.582C273.075 232.989 276.474 228.575 285.925 230.758C294.853 232.829 297.248 242.53 297.567 244.109C298.53 244.324 299.718 243.687 301.068 242.966C303.205 241.83 305.858 240.409 308.592 242.204C313.029 245.114 313.076 249.271 313.076 249.444C313.075 249.535 313.039 249.621 312.978 249.685C312.916 249.749 312.832 249.787 312.744 249.791C300.281 250.013 278.041 250.359 261.677 250.359ZM242.001 249.257C245.516 249.992 285.463 249.576 312.364 249.105C312.176 247.803 311.706 246.561 310.989 245.468C310.272 244.375 309.326 243.459 308.219 242.786C305.817 241.213 303.469 242.467 301.38 243.576C299.86 244.386 298.428 245.149 297.16 244.719C297.102 244.698 297.052 244.662 297.012 244.615C296.973 244.567 296.947 244.51 296.936 244.449C296.936 244.338 295.002 233.598 285.748 231.464C276.799 229.386 273.658 233.335 271.596 237.901C270.327 240.707 268.99 240.139 267.138 239.363C265.612 238.651 263.974 238.224 262.301 238.102C257.097 237.811 255.265 241.566 254.058 244.033L253.963 244.227C253.135 245.925 252.429 245.876 251.052 245.613C249.885 245.357 248.687 245.275 247.497 245.37C243.63 245.647 242.402 248.003 242.022 249.257H242.001Z" fill="#263238"/>
<path id="cloud_3" d="M93.7589 99.4315C82.3677 99.4315 73.8327 99.2653 73.446 98.7387C73.4108 98.692 73.386 98.6381 73.3731 98.5807C73.3602 98.5233 73.3596 98.4638 73.3714 98.4061C73.6156 97.3945 74.7961 94.0687 79.5521 93.7223C80.799 93.628 82.0526 93.712 83.2768 93.9717C84.5252 94.2142 84.8169 94.2697 85.4614 92.9671L85.5564 92.7731C86.7641 90.2926 88.7791 86.1285 94.4442 86.4541C96.1919 86.585 97.9031 87.0307 99.4987 87.7706C101.385 88.5604 102.09 88.8584 103.081 86.6551C105.164 82.0613 108.556 77.6478 118.007 79.8303C126.949 81.9089 129.337 91.6091 129.67 93.1611C130.633 93.362 131.813 92.7315 133.177 92.0109C135.308 90.8746 137.96 89.4542 140.694 91.2488C145.132 94.1588 145.179 98.316 145.179 98.4892C145.179 98.5799 145.144 98.667 145.082 98.7318C145.02 98.7966 144.935 98.8339 144.847 98.8357C132.37 99.1059 110.123 99.4315 93.7589 99.4315ZM74.0837 98.3299C77.5981 99.0643 117.546 98.6486 144.446 98.1775C144.258 96.876 143.788 95.6337 143.071 94.5407C142.354 93.4477 141.408 92.5315 140.301 91.8585C137.899 90.2857 135.552 91.5398 133.462 92.6553C131.942 93.459 130.511 94.2212 129.242 93.7916C129.185 93.7706 129.134 93.7346 129.095 93.6872C129.055 93.6397 129.029 93.5826 129.018 93.5214C129.018 93.4175 127.085 82.6711 117.831 80.537C108.882 78.4584 105.74 82.4147 103.678 86.9738C102.409 89.7452 101.073 89.2117 99.2205 88.4357C97.6948 87.7236 96.0564 87.2965 94.3831 87.1747C89.1726 86.8837 87.3475 90.639 86.1399 93.1057L86.0449 93.2997C85.2104 94.9972 84.5319 94.9487 83.175 94.6854C82.0072 94.433 80.8102 94.3513 79.6199 94.4429C75.712 94.727 74.484 97.0758 74.1041 98.3299H74.0837Z" fill="#263238"/>
<g id="plant_1">
<path d="M257.898 344.631C257.956 344.661 258.024 344.668 258.087 344.652C258.151 344.635 258.206 344.596 258.244 344.541C261.283 339.665 263.051 334.076 263.377 328.305C263.704 322.535 262.579 316.775 260.109 311.574C260.077 311.511 260.023 311.463 259.957 311.441C259.891 311.419 259.819 311.425 259.757 311.456C259.726 311.471 259.698 311.492 259.675 311.518C259.652 311.544 259.635 311.574 259.624 311.607C259.614 311.641 259.61 311.675 259.612 311.71C259.615 311.745 259.625 311.779 259.641 311.809C262.072 316.927 263.178 322.595 262.857 328.274C262.535 333.952 260.795 339.452 257.803 344.25C257.784 344.279 257.771 344.311 257.764 344.345C257.758 344.38 257.758 344.415 257.765 344.449C257.772 344.483 257.785 344.516 257.804 344.544C257.824 344.573 257.849 344.598 257.877 344.617L257.898 344.631Z" fill="#263238"/>
<path d="M257.769 333.205C260.903 333.836 260.754 339.095 260.625 339.129C260.428 339.649 260.225 340.169 260.001 340.688C260.048 339.94 259.139 338.346 257.246 336.829C255.353 335.312 254.824 332.492 257.769 333.205Z" fill="#263238"/>
<path d="M266.724 335.45C269.777 336.178 267.335 339.822 264.811 339.787C262.287 339.753 260.591 340.21 260.062 340.709C260.32 340.21 260.564 339.697 260.788 339.185C260.856 339.275 263.814 334.868 266.724 335.45Z" fill="#263238"/>
<path d="M258.508 328.445C261.697 328.535 262.423 333.697 262.308 333.739C262.206 334.286 262.09 334.827 261.962 335.367C261.88 334.626 260.713 333.233 258.569 332.069C256.425 330.905 255.503 328.23 258.508 328.445Z" fill="#263238"/>
<path d="M267.715 329.138C270.843 329.339 269.072 333.295 266.555 333.69C264.038 334.085 262.484 334.813 262.023 335.388C262.185 334.861 262.335 334.328 262.477 333.794C262.559 333.829 264.73 329.034 267.715 329.138Z" fill="#263238"/>
<path d="M258.447 323.595C261.609 323.145 263.196 328.085 263.061 328.147C263.061 328.695 263.027 329.242 262.993 329.796C262.789 329.103 261.405 327.919 259.126 327.143C256.846 326.367 255.421 323.942 258.447 323.595Z" fill="#263238"/>
<path d="M267.627 322.708C270.741 322.369 269.615 326.581 267.226 327.378C264.838 328.175 263.386 329.173 263.04 329.81C263.115 329.27 263.169 328.722 263.217 328.168C263.325 328.23 264.682 323.145 267.627 322.708Z" fill="#263238"/>
<path d="M257.599 318.863C260.645 317.879 263.027 322.5 262.898 322.57C262.979 323.117 263.04 323.657 263.095 324.205C262.776 323.547 261.229 322.632 258.854 322.251C256.48 321.87 254.675 319.708 257.599 318.863Z" fill="#263238"/>
<path d="M266.5 316.403C269.52 315.544 269.099 319.868 266.874 321.094C264.648 322.32 263.38 323.512 263.142 324.198C263.142 323.651 263.095 323.103 263.054 322.556C263.169 322.597 263.678 317.359 266.5 316.403Z" fill="#263238"/>
<path d="M255.971 314.297C258.814 312.807 261.907 316.992 261.819 317.068C261.989 317.595 262.138 318.121 262.28 318.655C261.86 318.059 260.177 317.415 257.775 317.442C255.374 317.47 253.223 315.634 255.971 314.297Z" fill="#263238"/>
<path d="M264.323 310.334C267.159 308.948 267.477 313.368 265.483 314.927C263.488 316.486 262.436 317.927 262.314 318.648C262.206 318.108 262.09 317.567 261.955 317.034C262.097 317.061 261.711 311.754 264.323 310.334Z" fill="#263238"/>
<path d="M260.89 314.006C260.971 314.006 260.537 309.294 259.261 307.036C257.986 304.777 256.127 305.158 255.598 306.135C255.068 307.112 255.944 308.65 256.955 309.752C257.965 310.853 260.93 313.944 260.89 314.006Z" fill="#263238"/>
<path d="M260.808 314.165C260.842 314.179 260.879 314.181 260.914 314.173C260.949 314.164 260.981 314.144 261.005 314.117C261.02 314.097 261.029 314.073 261.029 314.047C261.029 314.022 261.02 313.998 261.005 313.978C261.073 313.098 260.455 308.892 259.356 306.952C259.151 306.466 258.821 306.046 258.4 305.736C257.98 305.426 257.485 305.238 256.968 305.193C256.653 305.182 256.341 305.257 256.064 305.409C255.786 305.561 255.553 305.785 255.387 306.059C254.648 307.375 256.242 309.315 256.744 309.883C257.789 310.867 260.455 313.763 260.666 314.075C260.679 314.102 260.7 314.124 260.725 314.14C260.75 314.156 260.779 314.165 260.808 314.165ZM257.904 305.781C258.426 306.096 258.844 306.561 259.105 307.119C260.116 308.899 260.584 312.211 260.7 313.479C260.455 313.195 260.069 312.786 259.458 312.093C258.671 311.241 257.626 310.147 257.056 309.599C256.1 308.546 255.252 307.091 255.747 306.204C255.88 305.985 256.068 305.806 256.29 305.684C256.513 305.562 256.763 305.503 257.016 305.511C257.329 305.526 257.634 305.619 257.904 305.781Z" fill="#263238"/>
</g>
<g id="plant_2">
<path d="M261.493 347.069C261.543 347.134 261.615 347.177 261.694 347.19C261.773 347.202 261.854 347.184 261.921 347.139C267.593 343.275 272.202 337.991 275.308 331.792C278.414 325.593 279.913 318.685 279.662 311.726C279.669 311.68 279.666 311.633 279.653 311.588C279.64 311.543 279.618 311.501 279.588 311.466C279.558 311.431 279.521 311.402 279.48 311.383C279.438 311.363 279.393 311.353 279.347 311.353C279.301 311.353 279.256 311.363 279.214 311.383C279.173 311.402 279.136 311.431 279.106 311.466C279.076 311.501 279.054 311.543 279.041 311.588C279.028 311.633 279.025 311.68 279.031 311.726C279.278 318.575 277.802 325.374 274.745 331.475C271.688 337.576 267.151 342.776 261.568 346.578C261.5 346.625 261.453 346.698 261.436 346.781C261.42 346.864 261.435 346.95 261.48 347.021L261.493 347.069Z" fill="#263238"/>
<path d="M266.792 334.411C269.947 336.663 267.281 342.386 267.125 342.358C266.656 342.836 266.182 343.314 265.693 343.744C266.1 342.94 265.856 340.73 264.492 338.118C263.128 335.506 263.868 332.152 266.792 334.411Z" fill="#263238"/>
<path d="M275.598 341.333C278.618 343.654 274.194 346.453 271.426 345.164C268.678 343.993 266.568 343.536 265.734 343.813C266.249 343.39 266.758 342.947 267.254 342.497C267.308 342.635 272.661 339.24 275.598 341.333Z" fill="#263238"/>
<path d="M269.879 329.505C273.353 331.189 271.704 337.238 271.548 337.231C271.182 337.778 270.795 338.319 270.402 338.852C270.653 338 270.035 335.88 268.251 333.545C266.467 331.21 266.623 327.787 269.879 329.505Z" fill="#263238"/>
<path d="M279.696 334.82C283.048 336.593 279.174 340.072 276.25 339.268C273.353 338.575 271.209 338.478 270.442 338.887C270.895 338.379 271.315 337.866 271.704 337.349C271.786 337.453 276.453 333.295 279.696 334.82Z" fill="#263238"/>
<path d="M272.104 324.17C275.802 325.237 275.178 331.466 275.029 331.48C274.757 332.076 274.472 332.672 274.167 333.261C274.276 332.381 273.312 330.406 271.168 328.411C269.024 326.415 268.61 323.034 272.104 324.17Z" fill="#263238"/>
<path d="M282.641 327.752C286.237 328.923 282.994 333.004 279.975 332.706C276.955 332.408 274.893 332.776 274.201 333.309C274.54 332.741 274.879 332.166 275.185 331.584C275.286 331.688 279.201 326.755 282.641 327.752Z" fill="#263238"/>
<path d="M273.434 318.516C277.254 318.946 277.647 325.203 277.505 325.237C277.335 325.875 277.152 326.505 276.949 327.136C276.908 326.249 275.632 324.468 273.197 322.875C270.761 321.281 269.798 317.997 273.434 318.516Z" fill="#263238"/>
<path d="M284.418 320.221C288.15 320.768 285.619 325.362 282.593 325.577C279.567 325.791 277.593 326.512 277.003 327.15C277.247 326.54 277.471 325.916 277.681 325.293C277.797 325.397 280.85 319.861 284.418 320.221Z" fill="#263238"/>
<path d="M273.821 312.676C277.661 312.44 279.079 318.586 278.943 318.641C278.882 319.299 278.801 319.958 278.706 320.616C278.523 319.75 276.976 318.205 274.309 317.048C271.643 315.89 270.144 312.786 273.821 312.676Z" fill="#263238"/>
<path d="M284.92 312.454C288.693 312.35 286.956 317.366 284.005 318.094C281.053 318.821 279.221 319.895 278.747 320.623C278.882 319.978 279.011 319.32 279.12 318.669C279.249 318.745 281.345 312.724 284.92 312.454Z" fill="#263238"/>
<path d="M279.371 314.796C279.439 314.872 281.223 309.426 280.89 306.301C280.558 303.176 278.326 302.671 277.274 303.488C276.223 304.306 276.46 306.433 277.03 308.144C277.729 309.786 279.445 314.747 279.371 314.796Z" fill="#263238"/>
<path d="M279.201 314.927C279.233 314.959 279.273 314.98 279.317 314.987C279.36 314.995 279.405 314.988 279.445 314.969C279.472 314.957 279.496 314.938 279.512 314.914C279.529 314.889 279.539 314.86 279.54 314.83C280.036 313.902 281.352 308.955 281.06 306.266C280.945 304.749 280.293 303.613 279.269 303.142C278.928 302.973 278.549 302.9 278.171 302.931C277.793 302.961 277.429 303.094 277.118 303.315C275.666 304.396 276.508 307.334 276.799 308.207C277.478 309.807 279.038 314.325 279.126 314.775C279.128 314.804 279.135 314.833 279.148 314.859C279.161 314.885 279.179 314.908 279.201 314.927ZM279.988 304.243C280.412 304.852 280.648 305.576 280.667 306.322C280.931 308.789 279.873 312.669 279.398 314.124C279.262 313.694 279.031 313.036 278.679 312.003C278.211 310.68 277.586 308.948 277.213 308.061C276.664 306.426 276.419 304.396 277.39 303.668C277.641 303.496 277.933 303.393 278.235 303.372C278.537 303.35 278.84 303.409 279.113 303.544C279.455 303.703 279.755 303.942 279.988 304.243Z" fill="#263238"/>
</g>
<g id="plant_3">
<path d="M291.244 345.961C291.276 345.976 291.312 345.98 291.347 345.971C291.382 345.962 291.412 345.941 291.434 345.912C293.1 343.654 294.085 340.948 294.269 338.127C294.454 335.305 293.829 332.49 292.472 330.025C292.452 329.992 292.421 329.967 292.385 329.956C292.349 329.944 292.31 329.947 292.275 329.963C292.259 329.969 292.245 329.979 292.233 329.992C292.221 330.004 292.212 330.019 292.206 330.035C292.199 330.051 292.196 330.068 292.197 330.085C292.197 330.103 292.2 330.12 292.207 330.136C293.545 332.559 294.162 335.329 293.982 338.105C293.803 340.881 292.835 343.544 291.196 345.767C291.185 345.781 291.178 345.797 291.174 345.814C291.17 345.832 291.17 345.85 291.174 345.867C291.178 345.884 291.185 345.901 291.196 345.914C291.207 345.928 291.221 345.939 291.237 345.947L291.244 345.961Z" fill="#263238"/>
<path d="M291.176 340.453C292.906 340.75 292.824 343.293 292.757 343.307C292.648 343.557 292.533 343.806 292.411 344.055C292.411 343.695 291.929 342.926 290.884 342.199C289.839 341.471 289.541 340.106 291.176 340.453Z" fill="#263238"/>
<path d="M296.129 341.533C297.811 341.887 296.461 343.612 295.07 343.612C294.169 343.546 293.264 343.698 292.431 344.055C292.573 343.813 292.709 343.57 292.831 343.321C292.886 343.376 294.514 341.249 296.129 341.533Z" fill="#263238"/>
<path d="M291.583 338.145C293.347 338.187 293.747 340.674 293.686 340.702C293.625 340.958 293.564 341.222 293.496 341.478C293.449 341.125 292.818 340.453 291.63 339.891C290.443 339.33 289.907 338.055 291.583 338.145Z" fill="#263238"/>
<path d="M296.665 338.471C298.395 338.568 297.397 340.48 296.02 340.667C294.643 340.854 293.768 341.208 293.516 341.485C293.611 341.229 293.693 340.972 293.768 340.716C293.822 340.75 295.023 338.436 296.665 338.471Z" fill="#263238"/>
<path d="M291.549 335.824C293.299 335.609 294.161 337.986 294.1 338.021C294.1 338.284 294.086 338.547 294.059 338.811C293.951 338.471 293.184 337.91 291.929 337.536C290.674 337.162 289.88 335.984 291.549 335.824Z" fill="#263238"/>
<path d="M296.624 335.374C298.347 335.215 297.723 337.245 296.4 337.626C295.077 338.007 294.283 338.492 294.086 338.804C294.127 338.54 294.161 338.27 294.188 338.007C294.249 338.048 294.996 335.603 296.624 335.374Z" fill="#263238"/>
<path d="M291.081 333.538C292.763 333.06 294.066 335.291 294.012 335.325C294.052 335.582 294.093 335.845 294.12 336.108C293.944 335.797 293.089 335.353 291.773 335.173C290.457 334.993 289.466 333.947 291.081 333.538Z" fill="#263238"/>
<path d="M296 332.346C297.669 331.93 297.438 334.037 296.21 334.612C294.982 335.187 294.276 335.776 294.175 336.108C294.175 335.845 294.175 335.582 294.127 335.318C294.175 335.374 294.439 332.803 296 332.346Z" fill="#263238"/>
<path d="M290.185 331.334C291.752 330.642 293.462 332.63 293.415 332.672C293.503 332.928 293.591 333.184 293.673 333.434C293.435 333.15 292.506 332.838 291.183 332.852C289.86 332.866 288.666 331.979 290.185 331.334Z" fill="#263238"/>
<path d="M294.806 329.422C296.373 328.729 296.549 330.884 295.443 331.639C294.337 332.394 293.761 333.087 293.693 333.434C293.639 333.171 293.571 332.914 293.496 332.651C293.564 332.665 293.354 330.108 294.806 329.422Z" fill="#263238"/>
<path d="M292.899 331.217C292.835 330.045 292.53 328.9 292.004 327.856C291.325 326.768 290.267 326.949 289.968 327.42C289.67 327.891 290.158 328.632 290.708 329.166C291.257 329.699 292.926 331.161 292.899 331.217Z" fill="#263238"/>
<path d="M292.858 331.272C292.875 331.283 292.893 331.288 292.913 331.288C292.932 331.288 292.951 331.283 292.967 331.272C292.967 331.272 292.967 331.237 292.967 331.203C292.907 330.02 292.597 328.864 292.058 327.815C291.927 327.57 291.736 327.363 291.505 327.215C291.273 327.067 291.008 326.983 290.735 326.969C290.568 326.96 290.401 326.994 290.25 327.066C290.098 327.139 289.967 327.248 289.866 327.385C289.453 328.023 290.335 328.958 290.619 329.228C291.196 329.706 292.655 331.099 292.784 331.251C292.805 331.267 292.832 331.275 292.858 331.272ZM291.25 327.226C291.534 327.367 291.771 327.591 291.929 327.87C292.413 328.826 292.712 329.868 292.811 330.94C292.675 330.801 292.458 330.6 292.132 330.247C291.807 329.893 291.115 329.304 290.776 329.048C290.246 328.535 289.778 327.835 290.05 327.406C290.13 327.301 290.233 327.217 290.351 327.16C290.469 327.104 290.598 327.076 290.728 327.08C290.911 327.086 291.09 327.136 291.25 327.226Z" fill="#263238"/>
</g>
<g id="plant_4">
<path d="M293.238 347.153C293.271 347.18 293.312 347.194 293.354 347.194C293.396 347.194 293.436 347.18 293.469 347.153C299.819 343.404 303.578 336.864 303.273 330.08C303.265 330.039 303.243 330.003 303.212 329.976C303.18 329.95 303.14 329.935 303.1 329.935C303.059 329.935 303.019 329.95 302.988 329.976C302.956 330.003 302.935 330.039 302.927 330.08C303.225 336.753 299.534 343.189 293.279 346.882C293.26 346.891 293.243 346.905 293.23 346.921C293.217 346.938 293.208 346.957 293.203 346.978C293.199 346.999 293.199 347.02 293.204 347.041C293.209 347.062 293.218 347.081 293.232 347.097L293.238 347.153Z" fill="#263238"/>
<path d="M296.162 341.035C297.906 342.115 296.434 344.88 296.346 344.859C296.088 345.095 295.823 345.323 295.559 345.552C295.783 345.164 295.647 344.097 294.88 342.836C294.114 341.575 294.548 339.947 296.162 341.035Z" fill="#263238"/>
<path d="M301.027 344.381C302.696 345.504 300.254 346.848 298.72 346.231C297.187 345.614 296.04 345.448 295.579 345.58C295.864 345.372 296.142 345.164 296.413 344.942C296.447 344.998 299.405 343.363 301.027 344.381Z" fill="#263238"/>
<path d="M297.865 338.665C299.785 339.476 298.876 342.4 298.788 342.393C298.585 342.656 298.374 342.919 298.157 343.176C298.3 342.76 297.954 341.741 296.97 340.619C295.986 339.496 296.067 337.841 297.865 338.665Z" fill="#263238"/>
<path d="M303.293 341.229C305.145 342.081 303.008 343.758 301.387 343.37C299.765 342.982 298.605 342.988 298.177 343.189C298.415 342.947 298.652 342.697 298.856 342.448C298.924 342.51 301.502 340.48 303.293 341.229Z" fill="#263238"/>
<path d="M299.1 336.067C301.136 336.579 300.796 339.586 300.715 339.593C300.566 339.877 300.403 340.168 300.24 340.446C300.294 340.023 299.765 339.06 298.578 338.118C297.39 337.175 297.167 335.547 299.1 336.067Z" fill="#263238"/>
<path d="M304.928 337.813C306.916 338.374 305.118 340.342 303.456 340.196C301.794 340.051 300.647 340.231 300.267 340.487C300.45 340.217 300.633 339.94 300.81 339.663C300.857 339.718 302.995 337.342 304.928 337.813Z" fill="#263238"/>
<path d="M299.833 333.371C301.943 333.572 302.16 336.593 302.085 336.607C301.99 336.912 301.889 337.217 301.773 337.522C301.773 337.099 301.047 336.24 299.704 335.443C298.361 334.646 297.825 333.115 299.833 333.371Z" fill="#263238"/>
<path d="M305.898 334.189C307.968 334.452 306.577 336.67 304.894 336.773C303.212 336.877 302.133 337.224 301.8 337.529C301.936 337.238 302.065 336.94 302.18 336.635C302.241 336.69 303.931 333.988 305.898 334.189Z" fill="#263238"/>
<path d="M300.036 330.524C302.16 330.413 302.947 333.371 302.872 333.399C302.832 333.718 302.791 334.037 302.737 334.355C302.635 333.933 301.78 333.191 300.308 332.63C298.836 332.069 298.015 330.607 300.036 330.524Z" fill="#263238"/>
<path d="M306.176 330.448C308.266 330.399 307.303 332.81 305.674 333.164C304.046 333.517 303.028 334.03 302.771 334.383C302.845 334.071 302.913 333.76 302.974 333.441C303.042 333.482 304.202 330.572 306.176 330.448Z" fill="#263238"/>
<path d="M303.11 331.577C303.151 331.612 304.134 328.986 303.951 327.475C303.768 325.965 302.54 325.729 301.956 326.089C301.373 326.45 301.502 327.51 301.821 328.334C302.308 329.39 302.738 330.473 303.11 331.577Z" fill="#263238"/>
<path d="M302.994 331.639C303.015 331.653 303.038 331.66 303.062 331.66C303.087 331.66 303.11 331.653 303.13 331.639C303.144 331.635 303.156 331.627 303.166 331.616C303.175 331.605 303.182 331.591 303.184 331.577C303.758 330.27 304.045 328.852 304.026 327.42C304.019 327.098 303.923 326.784 303.747 326.516C303.572 326.249 303.325 326.038 303.035 325.909C302.844 325.83 302.638 325.796 302.432 325.811C302.226 325.825 302.027 325.887 301.848 325.992C301.047 326.519 301.509 327.932 301.672 328.348C302.045 329.124 302.906 331.3 302.954 331.522C302.946 331.543 302.946 331.566 302.953 331.588C302.961 331.61 302.975 331.628 302.994 331.639ZM303.429 326.484C303.661 326.767 303.794 327.121 303.809 327.489C303.826 328.774 303.595 330.05 303.13 331.244C303.056 331.037 302.927 330.718 302.73 330.226C302.472 329.588 302.126 328.75 301.923 328.327C301.617 327.538 301.482 326.561 302.018 326.207C302.162 326.123 302.323 326.073 302.489 326.062C302.655 326.052 302.821 326.08 302.974 326.145C303.157 326.221 303.321 326.337 303.456 326.484H303.429Z" fill="#263238"/>
</g>
<g id="plant_5">
<path d="M62.143 343.439C62.1111 343.454 62.0755 343.458 62.0412 343.45C62.007 343.443 61.9761 343.424 61.953 343.397C60.2866 341.137 59.3015 338.43 59.1184 335.607C58.9352 332.784 59.5619 329.968 60.9217 327.503C60.9413 327.471 60.971 327.448 61.0057 327.437C61.0404 327.425 61.0779 327.427 61.1117 327.44C61.1279 327.446 61.1428 327.456 61.1552 327.468C61.1676 327.48 61.1773 327.495 61.1838 327.512C61.1902 327.528 61.1931 327.545 61.1924 327.563C61.1917 327.581 61.1873 327.598 61.1796 327.614C59.8397 330.04 59.2223 332.812 59.4031 335.591C59.5838 338.37 60.5549 341.035 62.1972 343.259C62.2066 343.273 62.2129 343.289 62.2156 343.306C62.2183 343.323 62.2174 343.34 62.2128 343.357C62.2083 343.373 62.2003 343.388 62.1894 343.401C62.1785 343.414 62.165 343.425 62.1497 343.432L62.143 343.439Z" fill="#263238"/>
<path d="M62.204 337.931C60.4739 338.235 60.5553 340.771 60.63 340.785C60.7385 341.035 60.8471 341.291 60.9692 341.54C60.9692 341.173 61.4509 340.404 62.4957 339.677C63.5405 338.949 63.8458 337.584 62.204 337.931Z" fill="#263238"/>
<path d="M57.2581 339.011C55.5687 339.365 56.9188 341.09 58.3165 341.09C59.7141 341.09 60.6503 341.291 60.9489 341.533C60.8064 341.291 60.6775 341.048 60.5486 340.799C60.5011 340.854 58.866 338.727 57.2581 339.011Z" fill="#263238"/>
<path d="M61.7969 335.623C60.0397 335.672 59.6326 338.159 59.7005 338.18C59.7548 338.443 59.8158 338.7 59.8905 338.963C59.9379 338.603 60.5689 337.931 61.7494 337.376C62.9299 336.822 63.4998 335.533 61.7969 335.623Z" fill="#263238"/>
<path d="M56.7153 335.949C54.992 336.046 55.9826 337.958 57.3937 338.145C58.8049 338.332 59.653 338.693 59.8972 338.97C59.809 338.713 59.7276 338.457 59.6462 338.194C59.558 338.228 58.3571 335.914 56.7153 335.949Z" fill="#263238"/>
<path d="M61.8309 333.295C60.0872 333.081 59.2188 335.464 59.2799 335.492C59.2799 335.755 59.2934 336.018 59.3206 336.282C59.4359 335.942 60.1958 335.381 61.4577 335.007C62.7196 334.633 63.4999 333.462 61.8309 333.295Z" fill="#263238"/>
<path d="M56.7628 332.866C55.0395 332.706 55.6637 334.736 56.9799 335.124C58.2961 335.512 59.1034 335.984 59.2934 336.295C59.2527 336.032 59.2188 335.769 59.1916 335.506C59.1374 335.533 58.3843 333.08 56.7628 332.866Z" fill="#263238"/>
<path d="M62.299 331.016C60.6164 330.545 59.3205 332.769 59.3748 332.803C59.3273 333.067 59.2934 333.33 59.2595 333.593C59.4359 333.275 60.2975 332.831 61.6069 332.651C62.9163 332.471 63.9205 331.425 62.299 331.016Z" fill="#263238"/>
<path d="M57.3937 329.831C55.7247 329.415 55.9622 331.515 57.1902 332.09C58.4182 332.665 59.117 333.261 59.2256 333.586C59.2256 333.323 59.2256 333.06 59.2731 332.796C59.2188 332.817 58.9406 330.281 57.3937 329.831Z" fill="#263238"/>
<path d="M63.2013 328.812C61.6341 328.12 59.9244 330.115 59.9719 330.157C59.8769 330.406 59.7887 330.662 59.7141 330.919C59.9447 330.628 60.8742 330.323 62.204 330.337C63.5338 330.351 64.7143 329.457 63.2013 328.812Z" fill="#263238"/>
<path d="M58.5743 326.9C57.0138 326.242 56.8374 328.362 57.9365 329.117C59.0356 329.873 59.6191 330.565 59.6869 330.912C59.748 330.649 59.809 330.392 59.8837 330.129C59.8158 330.143 60.0261 327.586 58.5743 326.9Z" fill="#263238"/>
<path d="M60.4807 328.674C60.5522 327.502 60.8594 326.358 61.383 325.313C62.0615 324.226 63.1131 324.406 63.4184 324.877C63.7237 325.348 63.2284 326.089 62.6789 326.623C62.1294 327.156 60.4536 328.646 60.4807 328.674Z" fill="#263238"/>
<path d="M60.5282 328.75C60.5117 328.76 60.493 328.765 60.4739 328.765C60.4549 328.765 60.4361 328.76 60.4196 328.75C60.4196 328.75 60.4196 328.75 60.4196 328.688C60.4806 327.504 60.7931 326.348 61.3356 325.3C61.4642 325.054 61.653 324.846 61.8837 324.696C62.1144 324.547 62.379 324.461 62.6518 324.447C62.8197 324.439 62.9871 324.473 63.1396 324.545C63.292 324.617 63.425 324.727 63.527 324.863C63.934 325.501 63.0521 326.436 62.7739 326.706C62.1972 327.184 60.7385 328.584 60.6028 328.729C60.5934 328.739 60.5815 328.747 60.5684 328.75C60.5552 328.754 60.5413 328.754 60.5282 328.75ZM62.1429 324.711C61.8591 324.852 61.6229 325.076 61.4645 325.355C60.9752 326.316 60.6777 327.366 60.5893 328.445C60.725 328.314 60.9353 328.106 61.2677 327.787C61.6002 327.468 62.2786 326.852 62.6246 326.588C63.147 326.076 63.622 325.376 63.3438 324.946C63.2638 324.841 63.1606 324.757 63.0427 324.701C62.9248 324.644 62.7955 324.617 62.6653 324.621C62.4866 324.607 62.3073 324.638 62.1429 324.711Z" fill="#263238"/>
</g>
<g id="plant_6">
<path d="M60.1483 344.617C60.1174 344.647 60.0777 344.667 60.0351 344.674C59.9924 344.68 59.9489 344.672 59.9108 344.651C53.5605 340.896 49.8018 334.355 50.1071 327.572C50.1139 327.529 50.1365 327.489 50.1706 327.462C50.2046 327.435 50.2474 327.423 50.2903 327.427C50.3114 327.426 50.3324 327.429 50.3521 327.437C50.3718 327.444 50.3899 327.456 50.4051 327.471C50.4203 327.486 50.4324 327.504 50.4407 327.523C50.4489 327.543 50.4532 327.564 50.4532 327.586C50.1546 334.258 53.8454 340.702 60.1076 344.388C60.1256 344.398 60.1414 344.412 60.1538 344.428C60.1662 344.445 60.1749 344.464 60.1794 344.484C60.1839 344.505 60.1841 344.526 60.1799 344.546C60.1757 344.567 60.1672 344.586 60.1551 344.603L60.1483 344.617Z" fill="#263238"/>
<path d="M57.2173 338.513C55.4737 339.593 56.9528 342.358 57.0409 342.344C57.292 342.573 57.5566 342.801 57.828 343.037C57.6041 342.649 57.7398 341.582 58.5064 340.328C59.2731 339.074 58.8389 337.452 57.2173 338.513Z" fill="#263238"/>
<path d="M52.3528 341.845C50.6838 342.995 53.133 344.319 54.6799 343.688C56.2268 343.058 57.3937 342.905 57.828 343.037C57.543 342.829 57.2581 342.621 56.9867 342.4C56.9324 342.476 54.0015 340.841 52.3528 341.845Z" fill="#263238"/>
<path d="M55.5144 336.15C53.5944 336.961 54.5035 339.878 54.5917 339.871C54.7953 340.134 55.0056 340.397 55.2295 340.654C55.087 340.238 55.433 339.219 56.4168 338.097C57.4005 336.974 57.3123 335.318 55.5144 336.15Z" fill="#263238"/>
<path d="M50.0868 338.707C48.2346 339.559 50.3785 341.242 51.9932 340.854C53.6079 340.466 54.7817 340.473 55.2023 340.667C54.9649 340.425 54.7342 340.182 54.5239 339.926C54.4696 339.988 51.8779 337.958 50.0868 338.707Z" fill="#263238"/>
<path d="M54.2864 333.572C52.251 334.092 52.5903 337.092 52.6717 337.099C52.821 337.383 52.977 337.674 53.1466 337.958C53.0856 337.529 53.6215 336.572 54.802 335.623C55.9826 334.674 56.2132 333.025 54.2864 333.572Z" fill="#263238"/>
<path d="M48.4517 335.291C46.4706 335.859 48.2617 337.827 49.924 337.681C51.5862 337.536 52.7395 337.716 53.1195 337.972C52.9295 337.695 52.7463 337.418 52.5767 337.141C52.5224 337.196 50.365 334.82 48.4517 335.291Z" fill="#263238"/>
<path d="M53.5537 330.849C51.4437 331.057 51.2198 334.071 51.3012 334.085C51.3962 334.395 51.498 334.699 51.6065 335C51.6065 334.577 52.3325 333.718 53.6826 332.921C55.0327 332.124 55.5619 330.6 53.5537 330.849Z" fill="#263238"/>
<path d="M47.4815 331.667C45.4462 331.93 46.8031 334.147 48.4856 334.251C50.1682 334.355 51.2537 334.702 51.5794 335.014C51.4437 334.716 51.3216 334.418 51.1995 334.113C51.1384 334.168 49.449 331.494 47.4815 331.667Z" fill="#263238"/>
<path d="M53.323 328.029C51.1994 327.919 50.4192 330.884 50.4938 330.905C50.5278 331.224 50.5753 331.542 50.6228 331.861C50.7245 331.445 51.5794 330.697 53.0516 330.143C54.5239 329.588 55.3584 328.085 53.323 328.029Z" fill="#263238"/>
<path d="M47.2169 327.926C45.1341 327.877 46.0975 330.295 47.7258 330.648C49.3541 331.002 50.365 331.508 50.6296 331.861C50.5549 331.549 50.4803 331.237 50.426 330.919C50.3378 330.967 49.1777 328.057 47.2169 327.926Z" fill="#263238"/>
<path d="M50.27 329.055C50.2293 329.09 49.2455 326.464 49.4287 324.96C49.6119 323.457 50.8466 323.207 51.4233 323.574C52 323.942 51.8779 324.995 51.559 325.819C51.2402 326.644 50.2293 329.034 50.27 329.055Z" fill="#263238"/>
<path d="M50.3649 329.138C50.3443 329.15 50.3209 329.157 50.2971 329.157C50.2733 329.157 50.2499 329.15 50.2293 329.138C50.2293 329.138 50.1818 329.138 50.175 329.069C49.6017 327.762 49.3146 326.343 49.3337 324.912C49.3414 324.589 49.4394 324.275 49.6161 324.007C49.7928 323.74 50.0409 323.529 50.331 323.401C50.5221 323.322 50.7283 323.288 50.9341 323.303C51.1398 323.317 51.3396 323.379 51.5183 323.484C52.3189 324.011 51.8508 325.424 51.6947 325.847C51.3148 326.616 50.4531 328.799 50.4057 329.013C50.4126 329.024 50.417 329.036 50.4187 329.049C50.4203 329.061 50.4192 329.074 50.4152 329.086C50.4113 329.098 50.4047 329.109 50.396 329.118C50.3873 329.127 50.3767 329.134 50.3649 329.138ZM49.9307 323.969C49.7045 324.253 49.5716 324.602 49.5508 324.967C49.5334 326.254 49.7639 327.533 50.2293 328.729C50.3039 328.521 50.426 328.203 50.6228 327.704C50.8806 327.066 51.2266 326.228 51.4369 325.805C51.7354 325.016 51.8711 324.039 51.3351 323.685C51.1917 323.602 51.0313 323.554 50.8666 323.544C50.7018 323.534 50.5371 323.564 50.3853 323.63C50.2093 323.704 50.0534 323.821 49.9307 323.969Z" fill="#263238"/>
</g>
<path d="M282.085 196.454C280.524 194.777 278.611 191.382 277.24 188.618C276.969 187.821 276.684 187.038 276.352 186.269C276.087 185.638 275.788 185.028 275.483 184.433C275.483 184.433 275.483 184.391 275.517 184.398C275.992 184.537 279.249 185.132 277.756 181.897C276.263 178.661 269.967 175.432 269.967 175.432C269.967 175.432 271.568 173.977 270.076 173.187C267.949 172.265 265.734 171.568 263.468 171.109C262.633 171.046 254.166 165.781 251.724 165.94C249.281 166.099 251.317 167.402 251.317 167.402C249.789 166.761 248.196 166.297 246.567 166.016C245.565 165.853 244.549 165.791 243.535 165.829C243.535 165.829 237.944 165.607 234.213 168.538C230.481 171.469 230.393 174.254 228.649 176.16C226.906 178.065 218.561 176.721 214.985 179.7C211.41 182.68 213.791 185.825 213.16 186.872C212.529 187.918 206.484 191.722 209.632 195.816C212.054 198.941 220.684 199.281 224.172 199.849C224.633 200.064 225.115 200.272 225.617 200.459C224.796 201.63 220.067 200.777 225.203 203.847C229.864 206.618 234.979 205.233 237.958 206.722C240.217 208.344 241.825 209.999 242.375 211.572C243.731 215.321 244.715 218.937 244.715 218.937C244.715 218.937 251.33 214.503 255.177 212.916C256.26 212.666 257.388 212.702 258.454 213.02C261.419 214.06 268.705 221.078 270.944 219.81C273.183 218.543 272.009 216.616 272.009 216.616C272.009 216.616 276.969 219.111 278.258 217.566C278.628 217.082 278.878 216.515 278.988 215.912C279.098 215.309 279.064 214.688 278.889 214.101C278.889 214.101 284.317 213.055 286.352 207.692C288.387 202.329 284.982 199.572 282.085 196.454Z" fill="#7E57C2"/>
<path d="M332.711 102.965C326.272 99.6533 317.167 91.9625 310.376 85.5604C308.809 83.6203 307.194 81.7149 305.471 79.8858C304.066 78.403 302.587 76.9896 301.074 75.6108C301.074 75.5346 301.074 75.4861 301.142 75.4861C302.777 75.4861 313.66 74.5368 306.041 66.9569C298.422 59.3769 275.565 55.58 275.565 55.58C275.565 55.58 279.377 50.3696 273.929 49.4204C268.481 48.4711 253.8 48.4781 251.072 48.9492C248.345 49.4204 216.79 41.8404 209.171 44.21C201.552 46.5796 209.171 48.4781 209.171 48.4781C209.171 48.4781 199.917 47.5288 192.841 48.4781C185.764 49.4273 183.05 50.3696 183.05 50.3696C183.05 50.3696 165.085 54.1596 155.838 65.0584C146.59 75.9572 148.761 83.5372 144.982 90.1679C141.203 96.7987 113.421 99.6464 104.716 110.545C96.0114 121.444 106.344 128.075 105.259 131.394C104.173 134.712 88.3856 149.872 101.989 158.415C112.423 164.928 140.165 159.157 151.699 157.861C153.363 158.083 155.071 158.254 156.821 158.374C155.268 162.192 139.48 163.612 158.531 167.873C175.791 171.739 190.819 163.931 201.586 165.607C210.195 168.213 216.776 171.427 219.904 175.197C227.516 184.329 233.907 193.336 233.907 193.336C233.907 193.336 250.984 176.104 261.799 168.774C265.042 167.353 268.705 166.307 272.301 166.473C282.641 166.952 312.032 180.213 318.015 175.003C323.999 169.792 318.558 165.524 318.558 165.524C318.558 165.524 336.517 168.372 339.238 163.162C341.958 157.951 338.152 153.205 338.152 153.205C338.152 153.205 354.476 146.103 356.111 129.994C357.746 113.885 344.679 109.125 332.711 102.965Z" fill="#7E57C2"/>
<path opacity="0.3" d="M332.711 102.965C326.272 99.6533 317.167 91.9625 310.376 85.5604C308.809 83.6203 307.194 81.7149 305.471 79.8858C304.066 78.403 302.587 76.9896 301.074 75.6108C301.074 75.5346 301.074 75.4861 301.142 75.4861C302.777 75.4861 313.66 74.5368 306.041 66.9569C298.422 59.3769 275.565 55.58 275.565 55.58C275.565 55.58 279.377 50.3696 273.929 49.4204C268.481 48.4711 253.8 48.4781 251.072 48.9492C248.345 49.4204 216.79 41.8404 209.171 44.21C201.552 46.5796 209.171 48.4781 209.171 48.4781C209.171 48.4781 199.917 47.5288 192.84 48.4781C185.764 49.4273 183.05 50.3696 183.05 50.3696C183.05 50.3696 165.085 54.1596 155.838 65.0584C146.59 75.9572 148.761 83.5372 144.982 90.1679C141.203 96.7987 113.421 99.6464 104.716 110.545C96.0114 121.444 106.344 128.075 105.259 131.394C104.173 134.712 88.3856 149.872 101.989 158.415C102.348 158.637 102.735 158.845 103.128 159.039C109.058 159.164 117.512 156.018 129.086 144.828C156.747 118.097 166.625 117.114 166.625 117.114C166.625 117.114 140.939 119.636 146.868 113.587C152.798 107.538 175.513 100.471 181.931 99.9651C188.349 99.4593 208.106 99.4593 208.106 99.4593C208.106 99.4593 192.8 91.9001 199.713 89.8769C206.627 87.8537 219.47 89.3781 225.888 91.3943C232.306 93.4105 241.201 99.4593 241.201 99.4593C241.201 99.4593 271.786 89.3365 270.795 92.8701C269.804 96.4037 265.367 100.436 265.367 100.436C265.367 100.436 297.465 103.464 295.491 110.524C293.516 117.585 290.063 113.552 293.516 117.585C296.97 121.617 302.404 131.705 318.212 138.267C334.02 144.828 354.265 142.805 346.857 138.267C339.448 133.729 317.717 125.151 338.457 125.151C344.692 125.151 350.737 126.883 356.158 129.308C357.359 113.732 344.509 109.035 332.711 102.965Z" fill="white"/>
<path d="M239.403 222.658C238.514 200.826 237.754 182.61 237.754 182.61L242.273 168.233C242.273 168.233 251.771 151.605 257.28 146.166C262.789 140.726 277.213 123.744 277.213 123.744C277.213 123.744 264.96 134.234 261.894 137.491C258.827 140.747 254.241 142.549 254.241 142.549C254.241 142.549 256.079 136.043 256.69 134.927C257.301 133.812 261.283 113.587 261.283 113.587C261.283 113.587 255.462 132.759 251.479 141.44C247.497 150.122 234.016 169.654 234.016 169.654L231.872 160.972C231.872 160.972 231.261 146.865 231.567 145.417C231.872 143.969 241.065 118.291 241.065 118.291L228.487 138.599L223.276 100.623L223.887 142.576C222.806 141.665 221.674 140.821 220.494 140.047C219.266 139.355 203.947 127.389 202.42 125.22C200.894 123.051 192.922 112.561 192.922 112.561L199.028 126.661L183.424 119.795C183.424 119.795 219.266 142.944 220.8 149.81C222.333 156.676 222.835 170.34 222.835 170.34C222.835 170.34 223.181 236.931 222.869 249.971C222.557 263.011 219.076 307.735 218.764 319.258C218.452 330.78 219.409 347.118 219.409 347.118H250.014C250.014 347.118 242.754 313.673 241.805 285.349C241.398 273.168 240.59 252.465 239.803 232.822L258.44 194.715L239.403 222.658Z" fill="#263238"/>
<path d="M250.021 347.464H219.416C219.329 347.466 219.244 347.433 219.181 347.372C219.117 347.311 219.08 347.228 219.076 347.139C219.076 346.979 218.12 330.683 218.432 319.251C218.581 313.749 219.436 300.876 220.345 287.247C221.342 272.267 222.38 256.761 222.537 249.936C222.849 237.049 222.536 170.984 222.503 170.319C222.503 170.187 222.001 156.621 220.467 149.865C218.934 143.11 183.6 120.287 183.247 120.072C183.174 120.026 183.12 119.953 183.098 119.868C183.075 119.783 183.085 119.693 183.125 119.615C183.164 119.537 183.231 119.478 183.312 119.45C183.393 119.421 183.482 119.426 183.559 119.462L198.39 125.982L192.61 112.686C192.578 112.609 192.574 112.522 192.599 112.442C192.624 112.362 192.676 112.294 192.746 112.25C192.816 112.206 192.9 112.191 192.981 112.206C193.063 112.221 193.136 112.266 193.187 112.333C193.268 112.437 201.179 122.851 202.685 124.998C204.103 127.015 219.239 138.897 220.657 139.736C221.647 140.369 222.599 141.064 223.507 141.814L222.937 100.603C222.93 100.511 222.958 100.42 223.017 100.349C223.075 100.279 223.159 100.236 223.249 100.228C223.339 100.221 223.428 100.25 223.497 100.31C223.565 100.37 223.608 100.455 223.615 100.547L228.69 137.588L240.76 118.132C240.805 118.061 240.874 118.01 240.954 117.987C241.034 117.965 241.12 117.974 241.194 118.011C241.268 118.049 241.327 118.113 241.358 118.191C241.389 118.27 241.391 118.357 241.364 118.437C238.188 127.313 232.116 144.392 231.865 145.521C231.614 146.651 232.008 157.009 232.177 160.944L234.131 168.857C236.458 165.462 247.612 149.006 251.14 141.322C255.068 132.759 260.869 113.705 260.923 113.511C260.946 113.419 261.003 113.34 261.083 113.291C261.162 113.242 261.258 113.228 261.348 113.251C261.437 113.274 261.515 113.332 261.563 113.414C261.61 113.495 261.624 113.592 261.602 113.684C261.195 115.762 257.592 134.026 256.968 135.163C256.107 137.392 255.367 139.668 254.75 141.981C257.294 140.834 259.617 139.231 261.609 137.248C264.655 134.02 276.833 123.585 276.955 123.481C277.018 123.422 277.101 123.389 277.186 123.389C277.272 123.389 277.354 123.422 277.417 123.481C277.473 123.546 277.505 123.63 277.505 123.717C277.505 123.804 277.473 123.887 277.417 123.952C277.274 124.118 262.945 141.024 257.484 146.394C252.178 151.611 243.026 167.527 242.558 168.351L238.073 182.638C238.121 183.788 238.833 200.958 239.674 221.598L258.142 194.528C258.192 194.457 258.267 194.408 258.351 194.39C258.435 194.372 258.522 194.386 258.596 194.431C258.671 194.474 258.725 194.546 258.749 194.629C258.773 194.713 258.765 194.803 258.725 194.881L240.156 232.899C241.14 257.447 241.811 275.087 242.151 285.335C243.087 313.306 250.292 346.709 250.346 347.042C250.359 347.092 250.36 347.144 250.35 347.195C250.339 347.245 250.317 347.292 250.285 347.333C250.253 347.373 250.213 347.406 250.167 347.429C250.122 347.452 250.072 347.464 250.021 347.464ZM219.734 346.772H249.587C248.745 342.801 242.341 311.685 241.445 285.363C241.106 275.101 240.427 257.433 239.444 232.836C239.441 232.777 239.453 232.717 239.478 232.663L256.059 198.879L239.681 222.88C239.64 222.939 239.582 222.983 239.515 223.007C239.448 223.03 239.376 223.032 239.308 223.011C239.239 222.992 239.178 222.951 239.134 222.893C239.09 222.836 239.065 222.766 239.064 222.693C238.175 200.86 237.415 182.645 237.415 182.645C237.409 182.606 237.409 182.566 237.415 182.527L241.934 168.129C241.932 168.106 241.932 168.083 241.934 168.06C242.327 167.367 251.52 151.314 257.002 145.888C260.93 142.029 269.465 132.177 273.963 126.918C270.103 130.271 264.078 135.572 262.077 137.699C259.83 139.908 257.188 141.655 254.295 142.847C254.236 142.87 254.171 142.876 254.109 142.864C254.047 142.851 253.989 142.822 253.942 142.777C253.895 142.736 253.86 142.68 253.844 142.619C253.827 142.557 253.828 142.492 253.847 142.431C253.922 142.161 255.699 135.863 256.324 134.754C256.656 134.172 258.216 126.786 259.648 119.712C257.613 126.1 254.268 136.029 251.724 141.586C247.768 150.191 234.362 169.654 234.226 169.848C234.191 169.904 234.14 169.948 234.079 169.975C234.019 170.002 233.953 170.01 233.888 169.998C233.824 169.986 233.764 169.955 233.717 169.908C233.669 169.862 233.637 169.802 233.622 169.737L231.479 161.055C231.479 161.055 231.479 161.007 231.479 160.986C231.479 160.411 230.868 146.817 231.18 145.341C231.431 144.177 237.164 128.019 239.613 121.195L228.758 138.731C228.722 138.793 228.668 138.841 228.603 138.868C228.538 138.896 228.466 138.901 228.398 138.883C228.33 138.869 228.269 138.833 228.221 138.781C228.174 138.728 228.143 138.663 228.134 138.592L223.683 106.132L224.212 142.521C224.215 142.586 224.198 142.651 224.164 142.707C224.131 142.763 224.081 142.806 224.022 142.833C223.965 142.862 223.9 142.874 223.836 142.866C223.773 142.859 223.712 142.833 223.663 142.791C222.604 141.892 221.494 141.056 220.338 140.29C219.029 139.521 203.716 127.569 202.156 125.366C201.084 123.848 196.809 118.188 194.381 114.973L199.374 126.467C199.401 126.532 199.409 126.603 199.397 126.672C199.385 126.74 199.353 126.804 199.306 126.855C199.257 126.904 199.194 126.937 199.127 126.949C199.059 126.961 198.989 126.953 198.926 126.925L187.08 121.714C196.165 127.749 219.87 143.962 221.146 149.678C222.665 156.503 223.181 170.139 223.181 170.277C223.181 170.97 223.527 237.028 223.215 249.957C223.045 256.81 222.014 272.309 221.024 287.296C220.114 300.924 219.26 313.791 219.11 319.279C218.825 329.782 219.606 344.416 219.734 346.772Z" fill="#263238"/>
<path d="M55.277 342.843H62.9639L61.3627 339.573L66.485 343.501L66.8039 338.263L69.6873 341.866L71.6074 336.628L73.5274 341.866L80.5765 337.286L78.9754 343.169L84.4166 340.231L85.38 343.169L91.1469 340.882L91.7846 343.827H212.516V341.208L216.356 343.501L218.276 338.921L219.877 341.866L225.644 332.381L226.282 341.533L230.447 336.302L230.766 340.557L233.331 336.961V342.192L235.889 334.667L240.054 342.843L237.49 330.42L244.858 344.152L246.459 333.032L248.06 342.843L253.182 328.785L252.545 342.192L264.39 335.325L261.833 341.533L265.354 341.866L275.598 343.827L279.12 339.898L279.764 343.501H310.505L271.44 348.074L290.972 350.693L254.146 352.003L255.747 354.289H241.018L220.196 356.25L232.686 352.003L192.976 355.273L171.523 355.924H154.23L163.199 352.654H145.26L151.991 350.693L117.403 351.351L127.329 352.987L85.0611 350.368L94.6681 347.097L43.75 346.113L55.277 342.843Z" fill="#7E57C2"/>
<path d="M198.567 235.511C198.567 235.511 188.492 239.98 185.54 245.571C182.589 251.163 184.116 255.188 187.508 258.098C190.9 261.008 191.45 261.895 189.374 264.805C187.298 267.715 186.85 271.963 189.374 274.505C191.897 277.048 196.599 278.753 196.375 280.741C196.151 282.73 191.999 282.085 193.092 287.455C194.184 292.825 198.35 293.601 206.342 290.809C214.334 288.016 220.46 280.852 221.994 272.794C223.527 264.736 218.276 255.015 210.826 248.19C206.471 244.244 202.376 240.008 198.567 235.511Z" fill="#7D7D7D"/>
<path d="M198.981 292.783C197.777 292.829 196.584 292.549 195.52 291.973C194.096 291.148 193.2 289.707 192.759 287.573C192.006 283.887 193.661 282.813 194.876 282.03C195.554 281.587 195.982 281.289 196.043 280.762C196.151 279.757 194.503 278.683 192.759 277.533C191.46 276.738 190.243 275.81 189.129 274.762C186.416 271.956 187.094 267.424 189.129 264.584C191.056 261.888 190.622 261.175 187.325 258.348C183.254 254.883 182.575 250.504 185.289 245.391C188.268 239.765 198.065 235.365 198.478 235.178C198.545 235.148 198.62 235.141 198.691 235.159C198.762 235.176 198.826 235.217 198.872 235.275C202.67 239.775 206.749 244.02 211.084 247.982C219.368 255.604 223.792 265.36 222.353 272.926C220.779 281.199 214.551 288.37 206.477 291.19C204.077 292.124 201.547 292.662 198.981 292.783ZM198.472 235.968C196.966 236.661 188.458 240.818 185.839 245.772C183.308 250.553 183.946 254.62 187.725 257.863C191.212 260.849 191.857 261.951 189.645 265.041C187.779 267.653 187.128 271.789 189.611 274.318C190.689 275.327 191.867 276.218 193.125 276.979C195.161 278.295 196.871 279.432 196.714 280.866C196.62 281.746 195.914 282.203 195.235 282.647C194.082 283.395 192.766 284.247 193.424 287.462C193.817 289.395 194.611 290.684 195.853 291.411C197.888 292.596 201.192 292.326 206.233 290.559C214.076 287.788 220.135 280.859 221.661 272.822C223.059 265.505 218.717 255.978 210.602 248.571C206.303 244.623 202.252 240.402 198.472 235.933V235.968Z" fill="#263238"/>
<path d="M197.155 276.986C196.796 276.984 196.437 276.949 196.084 276.882C195.996 276.865 195.918 276.813 195.867 276.738C195.816 276.663 195.796 276.57 195.812 276.48C195.819 276.435 195.834 276.391 195.858 276.352C195.881 276.313 195.913 276.28 195.95 276.254C195.987 276.228 196.028 276.21 196.072 276.201C196.116 276.192 196.162 276.193 196.206 276.203C197.57 276.45 198.976 276.142 200.12 275.344C200.155 275.313 200.196 275.289 200.24 275.275C200.284 275.26 200.331 275.255 200.377 275.26C200.423 275.264 200.467 275.278 200.508 275.301C200.549 275.324 200.584 275.355 200.612 275.393C200.641 275.43 200.661 275.473 200.673 275.519C200.684 275.565 200.686 275.612 200.679 275.659C200.671 275.706 200.655 275.751 200.63 275.79C200.605 275.83 200.573 275.865 200.534 275.891C199.546 276.605 198.366 276.988 197.155 276.986Z" fill="#263238"/>
<path d="M193.254 275.51C193.181 275.511 193.109 275.486 193.051 275.441C192.692 275.155 192.349 274.847 192.026 274.519C189.041 271.464 191.545 268.18 193.383 265.782C194.292 264.584 195.161 263.454 195.059 262.741C194.91 261.604 193.858 260.606 192.535 259.352C190.932 257.942 189.53 256.31 188.369 254.502C187.094 252.375 187.786 249.569 190.405 246.389C190.462 246.318 190.545 246.274 190.635 246.265C190.725 246.257 190.814 246.285 190.883 246.344C190.952 246.403 190.996 246.487 191.004 246.579C191.013 246.67 190.985 246.762 190.927 246.832C189.258 248.876 187.535 251.8 188.973 254.135C190.1 255.902 191.471 257.494 193.044 258.86C194.469 260.212 195.595 261.279 195.758 262.664C195.887 263.662 194.984 264.847 193.94 266.219C192.074 268.658 189.971 271.422 192.535 274.041C192.834 274.35 193.154 274.637 193.492 274.9C193.563 274.956 193.609 275.039 193.62 275.13C193.632 275.221 193.608 275.313 193.553 275.385C193.517 275.429 193.471 275.464 193.419 275.485C193.367 275.507 193.31 275.516 193.254 275.51Z" fill="#263238"/>
<path d="M191.728 245.71C191.64 245.709 191.555 245.674 191.49 245.613C191.459 245.581 191.433 245.542 191.416 245.5C191.399 245.458 191.39 245.413 191.39 245.367C191.39 245.321 191.399 245.276 191.416 245.234C191.433 245.191 191.459 245.153 191.49 245.121C191.982 244.597 192.501 244.099 193.044 243.631C193.115 243.575 193.205 243.549 193.294 243.558C193.384 243.567 193.467 243.61 193.526 243.68C193.582 243.751 193.609 243.841 193.6 243.932C193.591 244.023 193.547 244.107 193.478 244.165C193.478 244.165 192.8 244.726 191.979 245.606C191.946 245.64 191.907 245.666 191.864 245.684C191.821 245.702 191.774 245.711 191.728 245.71Z" fill="#263238"/>
<path d="M175.445 306.447C175.445 306.447 162.459 301.853 154.8 299.303C147.14 296.753 145.81 296.241 143.815 297.917C141.821 299.594 124.14 318.149 120.836 320.872C117.532 323.595 115.68 325.459 115.68 325.459L118.177 329.879C118.177 329.879 125.829 326.311 135.491 321.717C145.152 317.124 149.976 312.537 149.976 312.537C149.976 312.537 163.626 322.57 169.285 325.798C174.943 329.027 181.605 332.769 181.605 332.769C184.036 331.092 186.371 329.276 188.6 327.33C190.927 325.119 191.267 316.278 191.267 316.278L175.445 306.447Z" fill="#263238"/>
<path d="M181.605 333.143C181.549 333.142 181.493 333.128 181.442 333.101C181.375 333.067 174.719 329.325 169.122 326.131C163.904 323.152 151.78 314.318 149.996 313.008C148.985 313.895 144.127 318.052 135.633 322.064C126.087 326.602 118.394 330.191 118.312 330.226C118.235 330.26 118.148 330.263 118.068 330.237C117.988 330.21 117.921 330.154 117.878 330.08L115.381 325.674C115.345 325.608 115.33 325.532 115.34 325.457C115.35 325.381 115.383 325.312 115.436 325.258C115.436 325.258 117.322 323.339 120.626 320.643C122.559 319.057 129.547 311.913 135.158 306.176C139.229 302.019 142.757 298.402 143.598 297.689C145.688 295.915 147.167 296.407 154.297 298.783L154.908 298.991C162.48 301.513 175.425 306.086 175.56 306.135H175.621L191.443 315.994C191.493 316.028 191.534 316.074 191.561 316.129C191.589 316.184 191.602 316.245 191.599 316.306C191.599 316.673 191.239 325.313 188.831 327.6C186.59 329.561 184.241 331.388 181.795 333.074C181.74 333.114 181.674 333.138 181.605 333.143ZM149.976 312.218C150.047 312.218 150.117 312.242 150.172 312.287C150.308 312.384 163.87 322.341 169.454 325.528C174.529 328.424 180.479 331.764 181.585 332.395C183.943 330.766 186.209 329.001 188.369 327.108C190.405 325.196 190.846 317.817 190.914 316.493L175.309 306.758C174.556 306.495 162.079 302.088 154.705 299.636L154.094 299.428C147.099 297.1 145.837 296.656 144.039 298.208C143.218 298.901 139.711 302.49 135.647 306.648C129.731 312.703 123.021 319.563 121.06 321.198C118.346 323.387 116.65 325.043 116.107 325.577L118.319 329.491C119.791 328.799 126.834 325.514 135.355 321.461C144.853 316.944 149.704 312.384 149.752 312.343C149.779 312.308 149.813 312.279 149.851 312.257C149.89 312.236 149.932 312.223 149.976 312.218Z" fill="#263238"/>
<path d="M179.665 326.131C179.665 326.131 175.832 327.344 157.873 327.344C139.914 327.344 140.043 327.614 133.571 329.096C127.098 330.579 114.024 331.909 111.67 331.909H106.65L106.521 340.272C106.521 340.272 116.555 341.887 126.332 342.968C136.108 344.049 147.995 342.157 153.273 342.025C158.551 341.894 170.316 345.122 185.5 346.072C200.683 347.021 208.221 343.64 209.246 343.238C210.27 342.836 179.665 326.131 179.665 326.131Z" fill="#263238"/>
<path d="M190.615 346.598C188.939 346.598 187.223 346.543 185.452 346.439C178.191 345.904 170.962 344.979 163.796 343.668C159.203 342.905 155.573 342.282 153.259 342.358C151.713 342.393 149.582 342.587 147.119 342.808C141.244 343.335 133.198 344.062 126.27 343.3C116.596 342.233 106.541 340.612 106.439 340.598C106.36 340.584 106.287 340.541 106.235 340.478C106.183 340.414 106.155 340.334 106.154 340.252L106.283 331.889C106.287 331.799 106.324 331.713 106.387 331.65C106.45 331.587 106.534 331.551 106.622 331.549H111.67C113.868 331.549 127.03 330.212 133.523 328.722L134.738 328.445C140.131 327.191 141.102 326.969 157.9 326.969C175.54 326.969 179.55 325.785 179.611 325.771C179.693 325.736 179.786 325.736 179.868 325.771C209.72 342.074 209.68 342.919 209.659 343.203C209.65 343.275 209.622 343.344 209.579 343.402C209.537 343.46 209.48 343.506 209.415 343.536L209.218 343.612C204.354 345.587 197.895 346.598 190.615 346.598ZM153.578 341.693C155.953 341.693 159.488 342.282 163.904 343.023C171.049 344.321 178.255 345.236 185.493 345.767C194.645 346.335 202.868 345.4 208.689 343.127C206.294 341.284 190.412 332.408 179.624 326.498C178.783 326.713 174.074 327.69 157.873 327.69C141.149 327.69 140.192 327.912 134.867 329.152L133.645 329.436C126.969 330.96 113.929 332.277 111.643 332.277H106.962L106.84 339.995C108.556 340.266 117.607 341.679 126.338 342.642C133.204 343.404 141.21 342.677 147.058 342.157C149.535 341.928 151.672 341.734 153.239 341.7L153.578 341.693Z" fill="#263238"/>
<path d="M111.114 330.524L110.876 341.734C110.944 341.991 105.218 341.291 100.13 340.882C94.261 340.411 93.9285 339.42 93.5689 338.568C93.2094 337.716 92.4902 330.254 92.4902 330.254C92.4902 330.254 89.1522 322.812 89.3897 319.438C89.6271 316.064 93.2094 308.705 93.9285 309.925C94.6477 311.144 98.4606 320.657 98.4606 320.657C98.4606 320.657 103.352 326.748 106.222 328.21C109.092 329.672 111.114 330.524 111.114 330.524Z" fill="#7D7D7D"/>
<path d="M110.544 342.109C109.94 342.109 108.637 341.998 105.632 341.707C103.915 341.54 101.968 341.353 100.102 341.201C94.1117 340.716 93.6639 339.649 93.2704 338.713C92.8769 337.778 92.2595 331.334 92.1578 330.344C91.8389 329.609 88.8198 322.722 89.0504 319.376C89.2676 316.265 92.2256 309.759 93.569 309.433C93.6966 309.39 93.8352 309.395 93.9597 309.447C94.0841 309.499 94.1862 309.595 94.2474 309.717C94.9259 310.909 98.4606 319.625 98.7863 320.443C99.2137 320.969 103.759 326.519 106.405 327.87C109.228 329.311 111.256 330.163 111.277 330.177C111.34 330.203 111.395 330.248 111.432 330.306C111.47 330.365 111.489 330.433 111.487 330.503L111.249 341.714C111.244 341.798 111.216 341.88 111.168 341.949C111.053 342.046 110.992 342.109 110.544 342.109ZM93.6639 310.126C92.8091 310.562 89.9528 316.244 89.7289 319.424C89.4982 322.715 92.7684 330.032 92.8023 330.108C92.8093 330.145 92.8093 330.182 92.8023 330.219C93.0873 333.184 93.6029 337.84 93.8539 338.402C94.166 339.164 94.5324 340.058 100.13 340.48C101.995 340.633 103.949 340.82 105.673 340.993C107.708 341.187 109.818 341.395 110.517 341.395L110.741 330.697C110.144 330.434 108.352 329.644 106.039 328.459C103.142 326.983 98.3724 321.066 98.1689 320.837C98.1491 320.812 98.1331 320.784 98.1214 320.754C98.101 320.657 94.4374 311.518 93.6639 310.126Z" fill="#263238"/>
<path d="M96.5881 340.037C96.5117 340.036 96.4377 340.009 96.3778 339.961C95.2515 339.039 94.9327 337.279 94.5934 335.415C94.5052 334.91 94.4102 334.397 94.2949 333.877C94.071 332.859 93.2908 330.545 92.4631 328.092C91.1062 324.08 90.231 321.392 90.231 320.56C90.231 319.729 91.0519 317.519 92.6734 313.819C92.6898 313.774 92.7149 313.734 92.7471 313.7C92.7793 313.666 92.818 313.639 92.8608 313.621C92.9036 313.603 92.9495 313.594 92.9958 313.595C93.0421 313.596 93.0878 313.606 93.13 313.625C93.1723 313.645 93.2101 313.673 93.2413 313.708C93.2725 313.743 93.2964 313.784 93.3115 313.829C93.3265 313.873 93.3325 313.921 93.3289 313.968C93.3254 314.015 93.3124 314.061 93.2908 314.103C91.1401 319.015 90.9094 320.255 90.9094 320.56C90.9094 321.343 92.0764 324.808 93.1076 327.863C93.9421 330.337 94.7291 332.672 94.9598 333.732C95.0751 334.251 95.1701 334.778 95.2583 335.291C95.5907 337.099 95.8757 338.658 96.8052 339.448C96.8751 339.505 96.92 339.588 96.9302 339.679C96.9404 339.77 96.9149 339.861 96.8595 339.933C96.8238 339.969 96.7812 339.996 96.7345 340.014C96.6878 340.032 96.6379 340.04 96.5881 340.037Z" fill="#263238"/>
<path d="M93.7928 312.509C93.7432 312.511 93.694 312.499 93.6504 312.475C93.5686 312.437 93.5049 312.367 93.4731 312.282C93.4413 312.196 93.444 312.101 93.4808 312.017L93.7996 311.324C93.8185 311.284 93.8451 311.247 93.8779 311.217C93.9108 311.187 93.9491 311.164 93.9908 311.149C94.0325 311.134 94.0766 311.128 94.1207 311.131C94.1648 311.133 94.2078 311.145 94.2474 311.165C94.2879 311.184 94.3243 311.21 94.3546 311.244C94.3848 311.277 94.4082 311.316 94.4233 311.359C94.4385 311.401 94.4452 311.447 94.4429 311.492C94.4407 311.537 94.4296 311.581 94.4102 311.622C94.4102 311.622 94.2881 311.879 94.0981 312.315C94.0708 312.374 94.0275 312.424 93.9734 312.458C93.9193 312.492 93.8566 312.51 93.7928 312.509Z" fill="#263238"/>
<path d="M190.106 308.595C190.106 308.595 187.325 308.442 180.893 306.655C174.461 304.867 170.363 302.497 170.072 303.814C169.78 305.13 175.777 313.673 178.993 317.255C180.942 319.413 183.413 321.01 186.158 321.884C183.189 322.895 180.304 324.144 177.528 325.618C173.457 327.856 170.804 328.307 172.1 329.498C173.396 330.69 189.062 341.741 197.542 345.33C202.482 347.455 207.705 348.812 213.038 349.356C213.038 349.356 219.911 349.806 222.252 347.118C224.592 344.43 230.881 336.067 230.881 333.531C230.881 330.995 229.565 329.949 228.846 328.903C228.127 327.856 225.651 312.627 225.651 310.084C225.651 307.541 225.237 303.966 227.577 302.026C229.918 300.086 232.788 291.993 233.378 288.411C233.968 284.829 234.396 279.175 231.343 276.868C228.29 274.561 221.498 279.127 219.504 279.175C217.509 279.224 201.369 287.836 198.01 294.709C195.609 299.472 192.971 304.107 190.106 308.595Z" fill="#7E57C2"/>
<path d="M214.212 349.737C213.533 349.737 213.106 349.737 213.038 349.702C207.669 349.148 202.41 347.782 197.434 345.649C188.892 342.039 173.111 330.863 171.897 329.755C171.75 329.648 171.632 329.505 171.554 329.339C171.475 329.173 171.439 328.989 171.449 328.806C171.551 328.113 172.473 327.69 174.163 326.907C175.045 326.491 176.151 325.979 177.372 325.313C179.863 323.983 182.446 322.839 185.099 321.891C182.681 320.935 180.507 319.431 178.742 317.491C176.028 314.456 169.38 305.407 169.739 303.738C169.763 303.626 169.81 303.521 169.877 303.429C169.944 303.337 170.028 303.26 170.126 303.204C170.804 302.816 172.209 303.329 174.739 304.25C176.435 304.867 178.539 305.636 180.981 306.329C183.908 307.215 186.901 307.857 189.93 308.248C192.742 303.822 195.335 299.255 197.698 294.564C201.131 287.545 217.468 278.898 219.483 278.843C220.521 278.634 221.527 278.287 222.475 277.81C225.359 276.584 229.307 274.914 231.533 276.605C233.955 278.434 234.681 282.432 233.697 288.481C233.12 292.007 230.223 300.259 227.781 302.303C225.861 303.897 225.915 306.779 225.963 309.093C225.963 309.44 225.963 309.786 225.963 310.098C225.963 312.87 228.493 327.829 229.117 328.715C229.246 328.903 229.402 329.097 229.565 329.297C230.641 330.437 231.238 331.962 231.227 333.545C231.227 336.399 224.355 345.24 222.516 347.361C220.678 349.481 216.322 349.737 214.212 349.737ZM170.696 303.765C170.603 303.759 170.51 303.776 170.424 303.814C170.412 303.822 170.401 303.834 170.393 303.847C170.384 303.86 170.379 303.875 170.377 303.89C170.16 304.902 175.608 313.001 179.197 317.02C181.122 319.121 183.552 320.671 186.246 321.517C186.316 321.537 186.378 321.579 186.423 321.638C186.468 321.696 186.494 321.768 186.497 321.842C186.5 321.918 186.478 321.992 186.435 322.054C186.392 322.115 186.33 322.16 186.259 322.182C183.314 323.194 180.45 324.435 177.691 325.895C176.449 326.588 175.336 327.094 174.441 327.51C173.274 328.05 172.168 328.57 172.12 328.896C172.12 328.965 172.195 329.09 172.344 329.228C173.552 330.323 189.211 341.409 197.691 344.991C202.601 347.095 207.789 348.447 213.086 349.003C213.153 349.003 219.816 349.404 222.021 346.876C224.572 343.938 230.563 335.852 230.563 333.517C230.571 332.094 230.03 330.724 229.056 329.706C228.88 329.498 228.717 329.291 228.575 329.09C227.713 327.856 225.298 312.385 225.298 310.07C225.298 309.759 225.298 309.426 225.298 309.08C225.25 306.613 225.189 303.537 227.367 301.742C229.545 299.948 232.422 292.125 233.039 288.335C233.968 282.647 233.31 278.774 231.146 277.131C229.226 275.676 225.481 277.263 222.747 278.42C221.728 278.941 220.64 279.307 219.517 279.508C217.584 279.556 201.565 288.217 198.316 294.848C195.9 299.627 193.249 304.278 190.371 308.782C190.339 308.834 190.294 308.877 190.24 308.905C190.186 308.933 190.126 308.945 190.066 308.941C189.95 308.941 187.182 308.768 180.784 306.987C178.315 306.294 176.198 305.525 174.495 304.908C173.275 304.381 172.001 303.997 170.696 303.765Z" fill="#263238"/>
<path d="M199.557 305.262C199.507 305.262 199.457 305.251 199.411 305.229C199.366 305.208 199.325 305.176 199.293 305.137C199.236 305.066 199.21 304.975 199.219 304.885C199.228 304.794 199.271 304.71 199.34 304.652C202.054 302.359 205.969 298.957 209.402 295.735C215.162 290.317 219.382 285.543 219.429 285.494C219.491 285.432 219.573 285.397 219.66 285.395C219.746 285.393 219.83 285.425 219.894 285.485C219.959 285.544 219.998 285.626 220.005 285.714C220.012 285.802 219.985 285.89 219.931 285.958C219.891 286.007 215.65 290.809 209.863 296.241C206.423 299.476 202.475 302.892 199.774 305.186C199.712 305.234 199.636 305.261 199.557 305.262Z" fill="#263238"/>
<path d="M196.552 307.784C196.501 307.784 196.451 307.774 196.406 307.752C196.36 307.73 196.319 307.699 196.287 307.659C196.232 307.586 196.206 307.495 196.215 307.404C196.224 307.312 196.267 307.228 196.335 307.167C196.335 307.167 197.013 306.641 198.031 305.781C198.065 305.752 198.104 305.73 198.147 305.717C198.189 305.703 198.234 305.699 198.278 305.703C198.322 305.708 198.365 305.721 198.405 305.743C198.444 305.765 198.478 305.794 198.506 305.83C198.562 305.901 198.588 305.992 198.58 306.082C198.571 306.173 198.527 306.257 198.458 306.315C197.407 307.202 196.762 307.701 196.762 307.701C196.705 307.755 196.63 307.785 196.552 307.784Z" fill="#263238"/>
<path d="M200.195 330.739C200.131 330.74 200.067 330.723 200.012 330.69C199.28 330.214 198.576 329.696 197.902 329.138C197.842 329.077 197.807 328.996 197.803 328.91C197.799 328.825 197.826 328.74 197.879 328.674C197.933 328.608 198.008 328.564 198.091 328.551C198.174 328.538 198.259 328.557 198.329 328.605C198.978 329.146 199.658 329.648 200.365 330.108C200.44 330.158 200.493 330.236 200.512 330.326C200.531 330.415 200.515 330.509 200.466 330.586C200.437 330.632 200.396 330.67 200.349 330.697C200.302 330.723 200.249 330.738 200.195 330.739Z" fill="#263238"/>
<path d="M196.653 327.884C196.567 327.883 196.484 327.849 196.423 327.787C194.386 325.797 192.731 323.435 191.545 320.824C191.528 320.781 191.519 320.736 191.519 320.69C191.52 320.645 191.529 320.599 191.546 320.557C191.563 320.515 191.589 320.477 191.62 320.445C191.652 320.413 191.69 320.387 191.731 320.37C191.773 320.353 191.817 320.344 191.862 320.344C191.907 320.344 191.951 320.353 191.992 320.371C192.033 320.389 192.071 320.415 192.102 320.447C192.134 320.48 192.159 320.518 192.176 320.56C193.338 323.084 194.948 325.365 196.925 327.288C196.957 327.32 196.982 327.359 196.999 327.401C197.016 327.443 197.025 327.488 197.025 327.534C197.025 327.58 197.016 327.625 196.999 327.667C196.982 327.709 196.957 327.748 196.925 327.78C196.89 327.816 196.847 327.844 196.8 327.862C196.753 327.88 196.703 327.888 196.653 327.884Z" fill="#263238"/>
<path d="M200.975 278.33C200.975 278.33 200.426 277.325 203.689 275.205C206.535 273.229 209.277 271.101 211.905 268.831L214.531 273.3C214.531 273.3 207.414 278.891 205.222 279.452C203.031 280.014 200.975 278.33 200.975 278.33Z" fill="white"/>
<path d="M204.313 279.944C203.029 279.885 201.792 279.431 200.765 278.642C200.732 278.611 200.702 278.576 200.677 278.538C200.561 278.316 200.147 277.152 203.533 274.942C206.352 272.973 209.069 270.857 211.674 268.602C211.713 268.569 211.757 268.545 211.805 268.531C211.853 268.516 211.903 268.512 211.953 268.519C212.001 268.529 212.047 268.549 212.088 268.577C212.129 268.606 212.164 268.643 212.19 268.685L214.816 273.161C214.859 273.234 214.874 273.321 214.857 273.404C214.841 273.487 214.795 273.562 214.727 273.612C214.436 273.84 207.536 279.252 205.304 279.847C204.979 279.921 204.646 279.954 204.313 279.944ZM201.28 278.171C201.708 278.469 203.418 279.598 205.161 279.148C207.041 278.67 212.848 274.221 214.103 273.251L211.837 269.392C209.295 271.577 206.643 273.626 203.893 275.531C201.518 277.034 201.294 277.907 201.28 278.136V278.171Z" fill="#263238"/>
<path d="M194.842 244.005C194.842 244.005 192.766 249.819 193.2 252.507C193.634 255.195 195.914 258.653 196.267 260.329C196.619 262.006 195.066 264.244 195.717 265.138C196.368 266.032 198.784 265.831 198.784 265.831C198.784 265.831 200.65 267.618 201.959 268.741C203.268 269.863 207 271.983 207.875 271.644C208.593 271.298 209.256 270.845 209.843 270.3L211.702 272.427L217.808 267.175C217.808 267.175 217.808 263.26 213.737 260.246C209.666 257.232 200.711 250.74 198.519 247.837C197.177 246.035 196.107 244.038 195.344 241.913L194.842 244.005Z" fill="white"/>
<path d="M211.702 272.752C211.654 272.751 211.607 272.741 211.564 272.72C211.521 272.7 211.482 272.671 211.451 272.635L209.809 270.764C209.264 271.25 208.651 271.65 207.99 271.949C206.83 272.392 202.861 269.932 201.742 268.983C200.622 268.034 199.082 266.565 198.662 266.17C198.065 266.205 196.117 266.26 195.446 265.346C195.012 264.75 195.283 263.828 195.568 262.851C195.87 262.073 195.995 261.234 195.934 260.399C195.64 259.408 195.247 258.452 194.761 257.544C193.912 255.978 193.276 254.303 192.868 252.562C192.427 249.86 194.374 244.31 194.523 243.901L195.066 241.823C195.082 241.751 195.122 241.686 195.179 241.64C195.235 241.593 195.305 241.568 195.378 241.566C195.451 241.564 195.522 241.586 195.582 241.628C195.642 241.671 195.687 241.732 195.71 241.802C196.467 243.889 197.521 245.85 198.838 247.622C200.751 250.165 208.079 255.597 212.461 258.84L213.988 259.969C218.127 263.052 218.174 267.009 218.174 267.182C218.174 267.232 218.163 267.282 218.142 267.328C218.121 267.373 218.09 267.413 218.052 267.445L211.946 272.697C211.874 272.745 211.787 272.765 211.702 272.752ZM209.843 269.932C209.887 269.932 209.93 269.942 209.97 269.962C210.01 269.981 210.045 270.009 210.073 270.043L211.715 271.921L217.468 266.988C217.31 265.684 216.88 264.43 216.207 263.31C215.534 262.19 214.634 261.23 213.567 260.496L212.081 259.373C207.672 256.103 200.297 250.643 198.316 248.017C197.168 246.472 196.214 244.787 195.473 243.001L195.195 244.095C195.195 244.158 193.159 249.86 193.573 252.41C193.971 254.086 194.584 255.7 195.398 257.211C195.917 258.167 196.331 259.178 196.633 260.225C196.719 261.167 196.589 262.116 196.253 262.997C196.022 263.766 195.792 264.556 196.022 264.875C196.423 265.415 197.929 265.491 198.791 265.408C198.888 265.405 198.982 265.44 199.055 265.505C199.055 265.505 200.921 267.3 202.21 268.394C203.642 269.607 207.149 271.485 207.787 271.242C208.467 270.913 209.096 270.484 209.653 269.967C209.711 269.937 209.777 269.925 209.843 269.932Z" fill="#263238"/>
<path d="M197.033 257.89H196.993C196.814 257.88 196.646 257.797 196.527 257.661C196.408 257.525 196.346 257.346 196.355 257.163C196.381 256.797 196.479 256.441 196.645 256.115C196.811 255.79 197.04 255.503 197.318 255.271C197.692 255.007 198.119 254.832 198.567 254.759C199.016 254.686 199.475 254.717 199.91 254.849C200.09 254.886 200.248 254.996 200.349 255.152C200.45 255.309 200.486 255.5 200.449 255.684C200.413 255.867 200.306 256.029 200.152 256.132C199.999 256.235 199.812 256.272 199.632 256.235C199.389 256.155 199.133 256.128 198.879 256.156C198.626 256.183 198.381 256.264 198.16 256.394C197.909 256.621 197.75 256.934 197.712 257.274C197.693 257.444 197.614 257.601 197.489 257.715C197.363 257.829 197.201 257.892 197.033 257.89Z" fill="#263238"/>
<path d="M199.225 260.343C199.166 260.343 199.109 260.328 199.057 260.299C199.006 260.27 198.963 260.228 198.933 260.177L198.255 259.054C198.209 258.976 198.196 258.883 198.218 258.795C198.239 258.707 198.294 258.631 198.37 258.583C198.408 258.558 198.45 258.542 198.495 258.534C198.539 258.527 198.585 258.528 198.629 258.54C198.673 258.551 198.714 258.571 198.75 258.598C198.786 258.626 198.816 258.661 198.838 258.701L199.374 259.616C200.024 259.53 200.633 259.242 201.118 258.791C201.143 258.754 201.176 258.722 201.214 258.697C201.252 258.673 201.294 258.656 201.338 258.648C201.382 258.641 201.428 258.642 201.471 258.652C201.515 258.662 201.556 258.681 201.593 258.708C201.664 258.763 201.712 258.845 201.726 258.935C201.74 259.026 201.719 259.118 201.667 259.193C201.057 260.073 199.428 260.315 199.245 260.336L199.225 260.343Z" fill="#263238"/>
<path d="M209.843 270.286L213.567 265.477L211.702 272.406L209.843 270.286Z" fill="#263238"/>
<path d="M211.702 272.752C211.654 272.752 211.607 272.741 211.564 272.721C211.521 272.701 211.482 272.671 211.451 272.635L209.592 270.514C209.54 270.451 209.512 270.371 209.512 270.289C209.512 270.207 209.54 270.127 209.592 270.064L213.316 265.256C213.364 265.194 213.432 265.151 213.507 265.135C213.583 265.118 213.662 265.129 213.73 265.166C213.801 265.201 213.857 265.261 213.889 265.334C213.921 265.407 213.927 265.49 213.907 265.567L212.048 272.496C212.032 272.557 212 272.612 211.956 272.656C211.912 272.7 211.857 272.731 211.797 272.746L211.702 272.752ZM210.29 270.244L211.546 271.672L212.801 266.995L210.29 270.244Z" fill="#263238"/>
<path d="M204.259 281.912C204.259 281.912 202.726 284.594 198.784 290.296C194.842 295.998 192.983 302.151 193.309 303.377C193.634 304.604 197.379 304.832 197.8 304.493C198.221 304.153 202.726 294.883 210.175 287.725C217.624 280.568 219.809 276.993 219.673 276.432C219.538 275.87 204.259 281.912 204.259 281.912Z" fill="white"/>
<path d="M196.83 304.985C195.981 304.98 195.137 304.847 194.326 304.59C193.566 304.32 193.112 303.945 192.969 303.467C192.617 302.137 194.489 295.894 198.492 290.095C202.38 284.476 203.92 281.781 203.954 281.732C203.995 281.668 204.054 281.617 204.123 281.587C214.056 277.679 219.341 275.836 219.829 276.106C219.876 276.133 219.916 276.17 219.948 276.214C219.979 276.258 220.002 276.309 220.013 276.362C220.209 277.353 216.966 281.656 210.392 287.975C204.571 293.573 200.602 300.446 198.906 303.343C198.663 303.857 198.355 304.337 197.99 304.77C197.629 304.945 197.228 305.019 196.83 304.985ZM204.49 282.189C204.171 282.744 202.542 285.46 199.062 290.504C195.161 296.151 193.356 302.234 193.634 303.294C193.682 303.474 193.906 303.668 194.265 303.828C195.328 304.241 196.476 304.374 197.603 304.216C197.658 304.153 197.983 303.592 198.329 302.996C200.039 300.045 204.042 293.137 209.931 287.476C216.58 281.088 218.751 277.824 219.246 276.799C217.387 277.228 209.51 280.215 204.49 282.189Z" fill="#263238"/>
<path d="M218.601 265.394C218.601 265.394 213.893 271.096 211.702 272.441C209.51 273.785 202.617 277.866 201.85 277.866C201.084 277.866 200.426 278.649 201.084 279.653C201.969 280.999 202.738 282.42 203.384 283.901C203.573 284.49 203.968 284.986 204.494 285.296C205.02 285.605 205.639 285.706 206.233 285.577C207.875 285.134 216.193 281.33 219.802 277.956C223.412 274.582 225.271 271.138 224.07 268.45C222.869 265.761 219.368 263.572 218.601 265.394Z" fill="white"/>
<path d="M205.657 286.028C205.176 286.027 204.706 285.888 204.3 285.626C203.701 285.252 203.254 284.672 203.038 283.991C202.398 282.558 201.647 281.179 200.792 279.868C200.62 279.643 200.511 279.374 200.479 279.091C200.447 278.807 200.492 278.52 200.609 278.261C200.732 278.042 200.912 277.862 201.128 277.74C201.345 277.618 201.59 277.558 201.837 277.568C202.427 277.513 207.319 274.706 211.518 272.136C213.554 270.896 217.896 265.685 218.303 265.207C218.416 264.961 218.597 264.755 218.824 264.613C219.05 264.472 219.313 264.401 219.578 264.41C221.146 264.41 223.412 266.295 224.328 268.381C225.528 271.055 223.982 274.568 219.979 278.289C216.227 281.753 207.861 285.536 206.267 285.972C206.066 286.013 205.861 286.032 205.657 286.028ZM219.612 265.069C219.469 265.058 219.327 265.094 219.205 265.171C219.083 265.248 218.988 265.363 218.934 265.498C218.92 265.531 218.902 265.561 218.88 265.588C218.69 265.824 214.13 271.346 211.898 272.704C210.976 273.272 202.848 278.247 201.871 278.247C201.745 278.241 201.62 278.271 201.509 278.333C201.399 278.395 201.308 278.488 201.247 278.6C201.186 278.748 201.167 278.91 201.192 279.068C201.217 279.226 201.285 279.374 201.389 279.494C202.006 280.436 203.608 283.208 203.737 283.866C203.915 284.36 204.252 284.778 204.693 285.051C204.909 285.193 205.152 285.286 205.405 285.326C205.659 285.365 205.918 285.349 206.165 285.28C207.672 284.871 215.989 281.122 219.599 277.755C223.364 274.256 224.85 271.027 223.792 268.651C222.876 266.655 220.773 265.069 219.612 265.069Z" fill="#263238"/>
<path d="M194.842 244.005C194.842 244.005 198.126 255.86 205.019 259.436C211.912 263.011 215.874 265.027 216.403 268.159C216.932 271.291 212.902 271.734 213.995 276.21C215.087 280.686 220.895 286.603 233.154 283.478C245.414 280.353 243.779 271.062 241.913 264.577C240.047 258.091 236.553 255.75 231.187 252.396C227.116 249.853 225.216 244.872 223.33 240.652C221.444 236.432 217.862 231.645 213.255 230.259C207.658 228.603 197.814 232.92 195.71 238.85C194.299 242.89 194.842 244.005 194.842 244.005Z" fill="#7D7D7D"/>
<path d="M226.723 284.691C224.138 284.746 221.579 284.166 219.26 283C217.926 282.339 216.743 281.401 215.785 280.246C214.827 279.091 214.116 277.745 213.696 276.293C213.018 273.653 214.096 272.309 215.019 271.131C215.698 270.237 216.315 269.461 216.098 268.221C215.589 265.29 211.647 263.246 205.121 259.865L204.89 259.747C198.024 256.186 194.754 244.865 194.543 244.123C194.442 243.867 194.082 242.536 195.419 238.747C197.664 232.407 207.76 228.277 213.377 229.94C219.321 231.7 222.754 238.476 223.663 240.506C223.832 240.887 224.002 241.275 224.178 241.663C225.868 245.495 227.781 249.839 231.39 252.098C236.927 255.562 240.407 258.008 242.246 264.48C243.494 268.824 244.457 273.813 242.171 277.887C240.59 280.714 237.585 282.737 233.243 283.811C231.113 284.375 228.923 284.671 226.723 284.691ZM210.596 230.266C205.168 230.266 197.814 233.966 196.043 238.982C194.686 242.717 195.147 243.832 195.154 243.832C195.157 243.851 195.157 243.869 195.154 243.888C195.188 244.005 198.485 255.632 205.168 259.131L205.392 259.248C212.339 262.844 216.159 264.833 216.736 268.096C217.007 269.648 216.247 270.618 215.514 271.561C214.646 272.669 213.757 273.813 214.32 276.127C214.719 277.479 215.389 278.732 216.287 279.805C217.185 280.879 218.292 281.75 219.538 282.363C223.052 284.219 227.727 284.483 233.066 283.118C237.225 282.058 240.081 280.173 241.574 277.526C243.731 273.674 242.788 268.859 241.574 264.66C239.783 258.424 236.553 256.144 230.997 252.666C227.211 250.304 225.25 245.848 223.534 241.927C223.357 241.539 223.188 241.151 223.025 240.777C222.143 238.809 218.825 232.261 213.16 230.585C212.324 230.357 211.461 230.25 210.596 230.266Z" fill="#263238"/>
<path d="M237.13 271.769C237.051 271.77 236.973 271.742 236.912 271.689C236.851 271.637 236.811 271.565 236.798 271.484C236.684 270.768 236.481 270.07 236.194 269.406C236.168 269.325 236.171 269.238 236.204 269.16C236.237 269.082 236.297 269.019 236.372 268.983C236.448 268.947 236.533 268.941 236.613 268.965C236.693 268.989 236.761 269.043 236.804 269.115C237.125 269.82 237.353 270.566 237.483 271.332C237.499 271.422 237.479 271.515 237.428 271.59C237.377 271.665 237.299 271.717 237.211 271.734L237.13 271.769Z" fill="#263238"/>
<path d="M235.291 267.916C235.205 267.916 235.122 267.881 235.061 267.819C233.378 266.184 230.366 265.45 225.8 264.355C223.412 263.78 220.44 263.052 216.98 262.034C203.336 258.008 200.758 251.204 200.656 250.913C200.64 250.871 200.632 250.826 200.633 250.78C200.635 250.735 200.645 250.69 200.663 250.649C200.681 250.608 200.708 250.571 200.74 250.54C200.773 250.509 200.811 250.485 200.853 250.47C200.938 250.439 201.031 250.443 201.112 250.482C201.194 250.521 201.257 250.591 201.287 250.678C201.287 250.74 203.893 257.447 217.17 261.369C220.603 262.387 223.568 263.101 225.956 263.683C230.624 264.819 233.704 265.567 235.522 267.334C235.554 267.366 235.579 267.404 235.596 267.445C235.613 267.487 235.622 267.532 235.622 267.577C235.622 267.622 235.613 267.667 235.596 267.708C235.579 267.75 235.554 267.788 235.522 267.819C235.492 267.851 235.456 267.876 235.417 267.892C235.377 267.909 235.334 267.917 235.291 267.916Z" fill="#263238"/>
<path d="M241.255 271.769H241.214C241.125 271.758 241.044 271.712 240.988 271.641C240.932 271.569 240.906 271.478 240.916 271.388C241.364 266.808 237.429 263.766 228.527 261.861C221.397 260.315 212.081 256.442 208.235 246.714C207.823 245.653 207.342 244.621 206.796 243.624C206.754 243.544 206.744 243.45 206.768 243.362C206.792 243.274 206.848 243.2 206.925 243.153C207.005 243.11 207.098 243.099 207.185 243.124C207.272 243.148 207.347 243.206 207.393 243.285C207.95 244.309 208.442 245.369 208.866 246.458C212.597 255.895 221.695 259.678 228.67 261.182C237.971 263.191 242.076 266.454 241.56 271.457C241.554 271.537 241.52 271.613 241.464 271.67C241.408 271.727 241.334 271.762 241.255 271.769Z" fill="#263238"/>
<path d="M206.172 242.329C206.118 242.33 206.064 242.317 206.015 242.291C205.967 242.266 205.925 242.229 205.894 242.183C203.465 238.663 201.396 239.031 201.375 239.038C201.286 239.057 201.192 239.039 201.115 238.987C201.038 238.936 200.984 238.856 200.965 238.764C200.946 238.672 200.964 238.576 201.014 238.498C201.064 238.419 201.143 238.364 201.233 238.345C201.335 238.345 203.737 237.839 206.45 241.767C206.501 241.843 206.521 241.936 206.506 242.027C206.491 242.117 206.442 242.198 206.369 242.252C206.312 242.298 206.244 242.324 206.172 242.329Z" fill="#263238"/>
<path d="M170.275 275.157C172.034 275.465 173.719 276.111 175.241 277.062C176.487 277.896 177.627 278.885 178.634 280.007L176.042 283.54L170.275 275.157Z" fill="white"/>
<path d="M176.035 283.887C175.982 283.884 175.93 283.868 175.883 283.842C175.836 283.816 175.795 283.779 175.764 283.734L170.017 275.351C169.98 275.295 169.959 275.23 169.957 275.163C169.955 275.095 169.973 275.029 170.007 274.972C170.042 274.914 170.092 274.869 170.152 274.84C170.211 274.811 170.278 274.801 170.343 274.81C172.153 275.127 173.888 275.795 175.452 276.778C176.722 277.629 177.882 278.639 178.905 279.785C178.952 279.846 178.978 279.922 178.978 280C178.978 280.078 178.952 280.153 178.905 280.215L176.313 283.748C176.28 283.791 176.238 283.826 176.19 283.85C176.142 283.874 176.089 283.887 176.035 283.887ZM171.042 275.669L176.042 282.945L178.186 280.028C177.243 279.019 176.191 278.121 175.051 277.353C173.816 276.568 172.461 275.998 171.042 275.669Z" fill="#263238"/>
<path d="M175.316 283.977L170.275 275.15L176.035 283.54L175.316 283.977Z" fill="#7E57C2"/>
<path d="M175.316 284.323H175.228C175.139 284.297 175.064 284.238 175.017 284.157L169.977 275.337C169.928 275.259 169.912 275.164 169.932 275.074C169.951 274.984 170.005 274.905 170.082 274.855C170.158 274.806 170.251 274.789 170.339 274.809C170.428 274.829 170.505 274.885 170.553 274.963L176.313 283.346C176.34 283.385 176.359 283.429 176.369 283.476C176.378 283.522 176.378 283.57 176.368 283.617C176.345 283.708 176.289 283.787 176.212 283.838L175.486 284.282C175.435 284.313 175.375 284.327 175.316 284.323ZM174.638 282.113L175.425 283.499L175.54 283.43L174.638 282.113Z" fill="#263238"/>
<path d="M170.275 275.157C170.275 275.157 172.867 276.48 173.946 278.018C175.024 279.556 176.035 283.021 176.035 283.021L170.275 275.157Z" fill="white"/>
<path d="M176.035 283.367C175.982 283.368 175.93 283.355 175.883 283.331C175.836 283.307 175.795 283.272 175.764 283.229L170.017 275.358C169.97 275.297 169.944 275.221 169.944 275.143C169.944 275.065 169.97 274.989 170.017 274.928C170.068 274.871 170.136 274.831 170.211 274.816C170.285 274.801 170.363 274.811 170.431 274.845C170.54 274.9 173.145 276.231 174.23 277.817C175.316 279.404 176.327 282.778 176.368 282.924C176.39 283.002 176.385 283.086 176.353 283.161C176.32 283.236 176.263 283.297 176.191 283.333C176.142 283.355 176.089 283.366 176.035 283.367ZM171.551 276.321L175.011 281.046C174.665 280.057 174.209 279.111 173.654 278.226C173.065 277.473 172.353 276.828 171.551 276.321Z" fill="#263238"/>
<path d="M175.316 283.977L189.143 299.864L200.806 293.462L187.99 277.506L175.316 283.977Z" fill="#7E57C2"/>
<path d="M189.143 300.211C189.094 300.21 189.046 300.2 189.002 300.179C188.958 300.159 188.918 300.13 188.885 300.093L175.058 284.206C175.025 284.166 175.001 284.119 174.988 284.069C174.975 284.019 174.973 283.966 174.984 283.915C174.992 283.863 175.012 283.813 175.043 283.771C175.073 283.729 175.114 283.695 175.16 283.672L187.834 277.173C187.903 277.14 187.981 277.131 188.055 277.148C188.13 277.164 188.197 277.204 188.247 277.263L201.07 293.199C201.101 293.238 201.124 293.284 201.136 293.333C201.147 293.382 201.148 293.434 201.138 293.483C201.128 293.533 201.108 293.581 201.078 293.623C201.049 293.664 201.012 293.7 200.968 293.726L189.299 300.121C189.257 300.166 189.202 300.197 189.143 300.211ZM175.859 284.102L189.218 299.442L200.283 293.372L187.895 277.956L175.859 284.102Z" fill="#263238"/>
<path d="M176.035 283.54C176.48 282.225 177.192 281.021 178.125 280.007C179.563 278.538 187.772 275.85 187.772 275.85L200.446 292.326L200.521 292.984L187.99 277.54L176.035 283.54Z" fill="white"/>
<path d="M200.548 293.296C200.497 293.297 200.447 293.286 200.402 293.264C200.356 293.243 200.315 293.211 200.283 293.171L187.928 277.928L176.212 283.838C176.152 283.87 176.084 283.882 176.018 283.873C175.951 283.865 175.889 283.835 175.838 283.79C175.788 283.746 175.752 283.687 175.734 283.622C175.715 283.557 175.717 283.487 175.737 283.423C176.2 282.059 176.94 280.81 177.908 279.757C179.394 278.24 187.359 275.6 187.698 275.475C187.763 275.456 187.833 275.457 187.898 275.478C187.964 275.499 188.021 275.539 188.064 275.593L200.738 292.07C200.779 292.119 200.805 292.179 200.812 292.243L200.88 292.936C200.891 293.01 200.877 293.085 200.84 293.149C200.803 293.214 200.745 293.263 200.677 293.289C200.635 293.301 200.591 293.304 200.548 293.296ZM187.657 276.217C185.242 277.034 179.468 279.134 178.369 280.249C177.668 281.004 177.099 281.876 176.686 282.827L187.84 277.173C187.908 277.14 187.985 277.13 188.059 277.147C188.133 277.163 188.199 277.204 188.247 277.263L192.556 282.577L187.657 276.217Z" fill="#263238"/>
<path d="M192.671 301.479C192.671 301.479 190.581 299.788 190.222 298.908C189.862 298.028 188.417 294.495 187.847 293.836C186.835 292.681 185.941 291.423 185.181 290.081C184.462 288.695 183.668 288.536 183.234 289.568C182.799 290.601 183.376 292.07 184.102 293.248C184.828 294.425 185.459 295.596 185.459 295.596C185.459 295.596 183.586 293.906 182.508 292.88C181.429 291.855 179.265 289.125 178.763 288.903C178.26 288.681 177.609 289.492 178.26 291.037C178.912 292.582 181.354 296.774 182.433 298.541C183.548 300.188 184.999 301.568 186.687 302.587C187.84 303.246 190.758 305.359 190.758 305.359L192.671 301.479Z" fill="white"/>
<path d="M190.798 305.726C190.728 305.727 190.659 305.705 190.602 305.664C190.602 305.664 187.65 303.53 186.531 302.892C184.795 301.849 183.303 300.43 182.162 298.735C181.015 296.864 178.607 292.728 177.962 291.19C177.46 289.991 177.663 289.167 178.03 288.792C178.141 288.673 178.284 288.591 178.442 288.556C178.599 288.522 178.763 288.536 178.912 288.598C179.231 288.744 179.794 289.361 181.001 290.732C181.639 291.46 182.304 292.208 182.752 292.638C183.2 293.067 183.614 293.448 184.109 293.878L183.844 293.442C183.274 292.513 182.406 290.76 182.955 289.444C183.254 288.751 183.634 288.578 183.96 288.564C184.285 288.55 184.916 288.779 185.513 289.949C186.258 291.266 187.136 292.499 188.132 293.629C188.546 294.107 189.34 295.797 190.568 298.797C190.832 299.456 192.352 300.786 192.915 301.236C192.975 301.287 193.017 301.357 193.034 301.435C193.052 301.512 193.043 301.594 193.01 301.666L191.138 305.56C191.115 305.604 191.083 305.643 191.045 305.674C191.006 305.706 190.961 305.728 190.914 305.74C190.875 305.749 190.834 305.744 190.798 305.726ZM178.586 289.215C178.566 289.217 178.547 289.223 178.53 289.232C178.512 289.242 178.497 289.255 178.484 289.27C178.335 289.423 178.159 289.963 178.559 290.899C179.19 292.402 181.571 296.497 182.711 298.354C183.794 299.951 185.201 301.291 186.836 302.283C187.779 302.823 189.842 304.285 190.649 304.86L192.223 301.576C191.653 301.098 190.188 299.837 189.889 299.04C188.336 295.243 187.772 294.294 187.569 294.065C186.538 292.889 185.628 291.607 184.855 290.24C184.468 289.492 184.095 289.257 183.926 289.243C183.756 289.229 183.641 289.416 183.519 289.707C183.206 290.455 183.519 291.675 184.36 293.06C185.079 294.231 185.717 295.416 185.717 295.43C185.757 295.501 185.771 295.584 185.756 295.664C185.741 295.744 185.698 295.816 185.635 295.867C185.573 295.919 185.495 295.948 185.415 295.948C185.334 295.948 185.256 295.919 185.194 295.867C185.194 295.867 183.308 294.155 182.236 293.137C181.761 292.686 181.09 291.924 180.445 291.19C179.876 290.488 179.254 289.833 178.586 289.229V289.215Z" fill="#263238"/>
<path d="M225.718 272.967C225.718 272.967 222.869 273.861 221.451 279.113C220.033 284.365 218.384 291.19 218.384 291.19C218.384 291.19 216.193 292.305 215.759 293.649C215.325 294.994 216.193 296.559 216.437 297.342C216.681 298.125 214.795 298.458 213.594 299.691C212.826 300.458 212.261 301.412 211.953 302.463C211.844 302.795 211.274 302.684 210.311 302.684C207.549 303.038 204.756 303.075 201.986 302.795C196.185 302.352 193.668 300.336 192.684 300.786C191.701 301.236 189.068 306.149 188.743 308.608C188.417 311.068 188.743 311.518 189.285 311.851C189.916 312.108 190.582 312.26 191.26 312.301C197.323 314.33 203.49 316.019 209.734 317.359C219.809 319.486 221.885 318.364 224.077 316.666C225.244 315.828 226.278 314.812 227.143 313.652C227.143 313.652 230.644 306.273 231.302 304.708C231.96 303.142 234.26 297.55 236.119 293.975C237.978 290.4 241.92 285.813 236.886 277.651C231.852 269.489 225.718 272.967 225.718 272.967Z" fill="#7E57C2"/>
<path d="M218.344 318.863C215.421 318.764 212.514 318.372 209.666 317.692C203.415 316.356 197.239 314.677 191.165 312.662C190.45 312.623 189.747 312.457 189.089 312.17C188.342 311.719 188.044 311.061 188.376 308.588C188.709 306.114 191.328 301.028 192.515 300.488C193.051 300.245 193.743 300.488 194.896 300.904C197.177 301.758 199.563 302.285 201.986 302.47C204.439 302.744 206.914 302.744 209.368 302.47C209.869 302.404 210.375 302.381 210.881 302.4C211.13 302.424 211.381 302.412 211.627 302.366V302.331C211.953 301.249 212.535 300.266 213.323 299.469C213.865 298.959 214.475 298.53 215.135 298.195C215.582 297.945 216.132 297.633 216.084 297.46C216.037 297.287 215.962 297.086 215.874 296.857C215.528 295.957 215.053 294.723 215.433 293.566C215.847 292.298 217.577 291.266 218.093 290.982C218.344 289.949 219.829 283.818 221.119 279.051C222.516 273.91 225.237 272.815 225.59 272.676C226.085 272.413 232.211 269.468 237.171 277.526C241.716 284.885 239.077 289.499 237.171 292.866C236.906 293.331 236.655 293.767 236.431 294.197C234.742 297.446 232.707 302.317 231.838 304.403L231.628 304.902C230.949 306.461 227.605 313.562 227.462 313.86C226.58 315.078 225.51 316.14 224.294 317.006C222.849 318.052 221.444 318.863 218.344 318.863ZM192.997 301.091C192.927 301.086 192.857 301.098 192.793 301.125C191.972 301.493 189.401 306.267 189.048 308.678C188.695 311.089 189.048 311.366 189.435 311.581C190.019 311.81 190.635 311.943 191.26 311.976H191.341C197.402 313.985 203.565 315.66 209.802 316.992C220.209 319.188 222.014 317.83 223.873 316.382C225.008 315.566 226.015 314.578 226.858 313.452C226.858 313.417 230.345 306.1 230.99 304.562L231.2 304.056C232.076 301.978 234.118 297.079 235.821 293.802C236.045 293.365 236.302 292.922 236.567 292.451C238.507 289.056 240.923 284.829 236.601 277.824C231.804 270.05 226.126 273.113 225.881 273.251H225.82C225.82 273.251 223.106 274.18 221.749 279.162C220.345 284.351 218.703 291.155 218.683 291.224C218.671 291.273 218.649 291.319 218.619 291.358C218.588 291.398 218.55 291.43 218.506 291.453C217.937 291.744 216.369 292.728 216.05 293.712C215.732 294.696 216.173 295.728 216.478 296.525C216.573 296.788 216.661 297.01 216.709 297.218C216.912 297.911 216.193 298.326 215.44 298.749C214.834 299.051 214.274 299.441 213.778 299.906C213.065 300.622 212.538 301.508 212.244 302.483V302.567C212.081 303.072 211.566 303.052 210.887 303.038C210.416 303.016 209.944 303.037 209.476 303.1C206.982 303.395 204.463 303.407 201.966 303.135C199.485 302.946 197.041 302.405 194.706 301.527C194.157 301.306 193.583 301.16 192.997 301.091Z" fill="#263238"/>
<path d="M216.369 310.195C216.307 310.194 216.246 310.174 216.193 310.14C212.604 307.915 212.563 303.696 212.563 303.523C212.563 303.431 212.599 303.343 212.663 303.278C212.726 303.213 212.812 303.176 212.902 303.176C212.992 303.176 213.079 303.213 213.142 303.278C213.206 303.343 213.242 303.431 213.242 303.523C213.242 303.557 213.289 307.527 216.546 309.551C216.584 309.574 216.618 309.605 216.644 309.642C216.671 309.679 216.69 309.721 216.701 309.765C216.712 309.81 216.714 309.856 216.707 309.901C216.7 309.946 216.684 309.99 216.661 310.029C216.63 310.079 216.587 310.12 216.536 310.149C216.485 310.178 216.428 310.194 216.369 310.195Z" fill="#263238"/>
<path d="M222.068 301.209C222.007 301.208 221.946 301.19 221.894 301.157C221.841 301.124 221.798 301.077 221.77 301.021C220.847 299.234 218.934 296.4 217.733 296.4C217.594 296.385 217.454 296.406 217.326 296.462C217.635 296.883 218.008 297.251 218.432 297.55C218.467 297.577 218.498 297.612 218.52 297.651C218.543 297.69 218.558 297.733 218.564 297.778C218.57 297.823 218.568 297.869 218.557 297.913C218.546 297.957 218.526 297.999 218.5 298.035C218.473 298.072 218.439 298.102 218.401 298.125C218.363 298.149 218.32 298.164 218.276 298.17C218.232 298.177 218.187 298.174 218.144 298.163C218.101 298.152 218.06 298.132 218.025 298.104C217.448 297.668 216.505 296.843 216.709 296.206C216.871 295.707 217.516 295.707 217.733 295.707C219.734 295.707 222.102 300.19 222.367 300.703C222.388 300.743 222.401 300.786 222.405 300.832C222.41 300.877 222.405 300.922 222.392 300.966C222.378 301.009 222.357 301.049 222.328 301.084C222.299 301.118 222.264 301.146 222.224 301.167C222.177 301.195 222.123 301.209 222.068 301.209Z" fill="#263238"/>
<path d="M191.47 311.075C191.385 311.075 191.302 311.043 191.239 310.984C191.176 310.924 191.138 310.843 191.131 310.756C190.751 305.851 194.211 302.137 194.36 301.978C194.391 301.945 194.429 301.919 194.47 301.901C194.511 301.883 194.555 301.873 194.6 301.872C194.644 301.872 194.689 301.88 194.73 301.897C194.772 301.914 194.81 301.939 194.842 301.971C194.874 302.003 194.9 302.041 194.917 302.083C194.935 302.124 194.944 302.17 194.945 302.215C194.946 302.261 194.938 302.306 194.921 302.349C194.904 302.391 194.88 302.43 194.849 302.463C194.849 302.497 191.456 306.114 191.809 310.701C191.813 310.746 191.808 310.792 191.794 310.836C191.78 310.879 191.758 310.919 191.729 310.954C191.7 310.989 191.665 311.018 191.625 311.038C191.585 311.059 191.542 311.071 191.497 311.075H191.47Z" fill="#263238"/>
<path d="M116.847 321.232L123.882 329.644C123.882 329.644 119.581 334.639 117.674 336.836C115.768 339.032 112.179 344.638 110.632 344.755C109.085 344.873 104.187 341.707 102.633 340.854C101.079 340.002 95.1158 335.734 93.3518 331.591C91.5878 327.447 89.9595 322.694 92.3748 322.937C94.7901 323.179 97.7482 326.353 101.324 327.447C104.899 328.542 104.546 328.667 107.532 327.323C110.517 325.979 116.847 321.232 116.847 321.232Z" fill="#7D7D7D"/>
<path d="M110.551 345.109C109.262 345.109 106.48 343.536 103.766 341.915C103.23 341.603 102.782 341.333 102.47 341.159C100.917 340.307 94.8309 335.949 93.0126 331.729C89.9799 324.718 90.8483 323.498 91.1333 323.096C91.278 322.9 91.4733 322.749 91.6973 322.659C91.9214 322.57 92.1654 322.546 92.402 322.59C93.6911 322.722 95.0683 323.609 96.6559 324.627C98.1235 325.669 99.7207 326.505 101.405 327.115L102.307 327.399C104.784 328.168 104.784 328.175 107.253 327.066L107.376 327.004C110.293 325.701 116.562 320.997 116.623 320.948C116.693 320.897 116.779 320.875 116.864 320.885C116.949 320.895 117.028 320.938 117.084 321.004L124.127 329.415C124.181 329.478 124.211 329.56 124.211 329.644C124.211 329.728 124.181 329.809 124.127 329.872C124.127 329.872 119.832 334.868 117.919 337.064C117.356 337.709 116.636 338.672 115.883 339.683C113.549 342.801 111.813 345.012 110.652 345.102L110.551 345.109ZM92.2324 323.276C92.1351 323.266 92.037 323.281 91.9469 323.32C91.8568 323.359 91.7776 323.42 91.7168 323.498C91.4386 323.893 91.0383 325.452 93.6639 331.452C95.4143 335.505 101.317 339.718 102.83 340.55C103.142 340.723 103.597 340.993 104.139 341.312C105.978 342.406 109.363 344.416 110.564 344.416H110.639C111.575 344.346 113.773 341.416 115.388 339.275C116.162 338.242 116.887 337.272 117.464 336.607C119.133 334.695 122.62 330.642 123.475 329.678L116.833 321.738C115.605 322.653 110.388 326.477 107.708 327.683L107.586 327.738C104.94 328.93 104.872 328.937 102.158 328.099L101.256 327.822C99.5073 327.195 97.8485 326.333 96.3235 325.258C94.8105 324.281 93.5011 323.436 92.3681 323.325L92.2324 323.276Z" fill="#263238"/>
<path d="M105.856 330.219C105.252 330.204 104.664 330.022 104.153 329.692C104.113 329.671 104.079 329.641 104.051 329.605C104.023 329.57 104.002 329.529 103.99 329.485C103.978 329.441 103.975 329.395 103.981 329.349C103.987 329.304 104.001 329.261 104.024 329.221C104.068 329.141 104.142 329.083 104.228 329.058C104.314 329.033 104.407 329.045 104.485 329.09C104.764 329.282 105.078 329.414 105.408 329.478C105.738 329.543 106.077 329.538 106.405 329.464C106.493 329.447 106.584 329.466 106.659 329.516C106.733 329.567 106.786 329.645 106.806 329.734C106.815 329.779 106.815 329.824 106.806 329.869C106.798 329.914 106.781 329.956 106.756 329.994C106.732 330.032 106.7 330.065 106.663 330.09C106.626 330.116 106.585 330.134 106.541 330.143C106.316 330.194 106.086 330.219 105.856 330.219Z" fill="#263238"/>
<path d="M107.85 329.637C107.788 329.637 107.726 329.619 107.673 329.585C107.62 329.55 107.578 329.501 107.552 329.443C107.512 329.361 107.505 329.266 107.533 329.179C107.561 329.092 107.621 329.02 107.701 328.979C108.323 328.659 108.924 328.298 109.499 327.898C112.6 325.819 116.65 322.854 116.691 322.819C116.765 322.769 116.856 322.75 116.944 322.765C117.032 322.78 117.112 322.829 117.166 322.902C117.192 322.939 117.21 322.982 117.22 323.026C117.23 323.071 117.231 323.117 117.224 323.162C117.216 323.207 117.2 323.25 117.176 323.289C117.152 323.328 117.121 323.361 117.084 323.387C117.043 323.387 113.013 326.36 109.872 328.473C109.274 328.893 108.649 329.27 108 329.602C107.953 329.624 107.902 329.636 107.85 329.637Z" fill="#263238"/>
<path d="M120.687 331.473C120.644 331.474 120.601 331.466 120.561 331.45C120.522 331.433 120.486 331.408 120.456 331.376L119.242 330.198C119.176 330.135 119.138 330.047 119.135 329.955C119.133 329.863 119.166 329.773 119.228 329.706C119.29 329.639 119.376 329.6 119.466 329.597C119.557 329.595 119.644 329.629 119.71 329.692L120.924 330.877C120.973 330.925 121.007 330.987 121.021 331.055C121.035 331.123 121.029 331.193 121.003 331.257C120.977 331.321 120.934 331.376 120.877 331.415C120.821 331.453 120.755 331.473 120.687 331.473Z" fill="#263238"/>
<path d="M118.19 329.034C118.104 329.034 118.021 328.999 117.959 328.937L114.296 325.362C114.231 325.298 114.194 325.21 114.193 325.117C114.191 325.025 114.226 324.936 114.289 324.87C114.352 324.804 114.438 324.766 114.528 324.765C114.619 324.763 114.706 324.799 114.771 324.863L118.455 328.445C118.504 328.493 118.537 328.555 118.551 328.623C118.565 328.691 118.559 328.761 118.533 328.825C118.508 328.889 118.464 328.944 118.408 328.983C118.351 329.021 118.285 329.041 118.217 329.041L118.19 329.034Z" fill="#263238"/>
<path d="M111.785 343.917C111.747 343.924 111.708 343.924 111.67 343.917C111.67 343.917 111.121 343.716 110.13 343.307C110.046 343.273 109.979 343.207 109.944 343.122C109.908 343.038 109.907 342.942 109.94 342.857C109.973 342.771 110.039 342.703 110.121 342.667C110.204 342.63 110.297 342.629 110.381 342.663C111.351 343.065 111.887 343.259 111.894 343.259C111.984 343.273 112.065 343.324 112.118 343.399C112.171 343.475 112.193 343.569 112.179 343.661C112.165 343.752 112.115 343.835 112.041 343.889C111.967 343.944 111.875 343.966 111.785 343.952V343.917Z" fill="#263238"/>
<path d="M109.302 342.905C109.258 342.915 109.211 342.915 109.167 342.905C107.511 342.178 105.774 341.346 104.031 340.425C99.6547 338.125 96.9884 335.769 95.1226 332.533C93.4129 329.588 92.2528 324.912 92.2053 324.69C92.194 324.646 92.1915 324.6 92.1977 324.555C92.2039 324.509 92.2188 324.466 92.2415 324.427C92.2642 324.387 92.2942 324.353 92.3299 324.326C92.3656 324.298 92.4063 324.278 92.4495 324.267C92.5367 324.246 92.6286 324.26 92.7058 324.307C92.7829 324.353 92.8395 324.428 92.8634 324.517C92.8634 324.565 94.0507 329.318 95.7061 332.187C97.504 335.291 100.089 337.577 104.343 339.808C106.08 340.723 107.796 341.547 109.438 342.268C109.519 342.304 109.583 342.372 109.616 342.456C109.649 342.54 109.649 342.635 109.614 342.718C109.584 342.776 109.539 342.824 109.484 342.857C109.429 342.89 109.366 342.907 109.302 342.905Z" fill="#263238"/>
<defs>
<radialGradient id="paint0_radial_6_332" cx="0" cy="0" r="1" gradientUnits="userSpaceOnUse" gradientTransform="translate(200 200) rotate(90) scale(200)">
<stop offset="0.885417" stop-color="#4F4F4F"/>
<stop offset="1" stop-color="#2A2A2A" stop-opacity="0"/>
</radialGradient>
</defs>
</svg>
